<svg version="1.1" id="Layer_1" xmlns="http://www.w3.org/2000/svg" xmlns:xlink="http://www.w3.org/1999/xlink" x="0px" y="0px"
	 width="100%" viewBox="0 0 798 741" enable-background="new 0 0 798 741" xml:space="preserve">
<path fill="#010101" opacity="1.000000" stroke="none" 
	d="
M799.000000,271.000000 
	C799.000000,427.978546 799.000000,584.957092 799.000000,741.967834 
	C533.057739,741.967834 267.115540,741.967834 1.086644,741.967834 
	C1.086644,495.091522 1.086644,248.182999 1.086644,1.137237 
	C266.999969,1.137237 532.999939,1.137237 799.000000,1.137237 
	C799.000000,88.771187 799.000000,176.425888 798.704529,264.766357 
	C798.606018,267.301422 798.803040,269.150726 799.000000,271.000000 
M72.376068,333.068848 
	C71.275269,334.369446 70.174461,335.670044 68.425430,337.320557 
	C64.968918,346.776184 60.997982,356.122711 66.974564,366.170197 
	C68.337440,368.461365 68.438484,371.503082 69.009186,375.103943 
	C69.355171,383.040619 69.701157,390.977295 69.936394,399.637054 
	C67.909027,403.557281 64.514542,407.076416 66.071198,411.416443 
	C67.372223,412.091431 68.220070,412.531281 69.421516,413.505981 
	C70.565666,414.448578 71.709816,415.391144 72.866470,416.440033 
	C72.866470,416.440033 72.940361,416.517487 72.743263,417.433075 
	C73.877419,422.358459 75.011581,427.283844 76.036842,432.802643 
	C76.014809,433.203705 75.992783,433.604736 75.471893,434.384216 
	C74.616325,435.271332 73.760757,436.158447 72.424698,436.490356 
	C71.126495,432.020325 69.828300,427.550262 68.228592,422.042084 
	C66.778816,424.635651 65.460609,426.221863 64.950874,428.035370 
	C62.325443,437.375885 58.764542,446.642426 57.660183,456.181366 
	C55.507145,474.778198 60.871342,491.812683 71.948059,507.606415 
	C72.265686,507.794159 72.583313,507.981903 72.944504,508.065674 
	C72.944504,508.065674 72.848320,508.124481 73.008789,508.782990 
	C88.462402,529.241089 110.831802,536.357605 134.311295,540.463074 
	C135.195007,532.294861 135.945984,523.886902 137.112045,515.536865 
	C137.430771,513.254395 138.995682,511.145844 140.728851,509.144958 
	C141.413071,510.484314 142.553482,511.785614 142.669189,513.172424 
	C142.823242,515.018677 142.179642,516.931519 141.444244,519.512817 
	C137.474487,539.431885 141.576492,558.411743 150.031448,576.177002 
	C157.627563,592.137695 170.490875,604.386414 185.853210,612.675598 
	C218.582169,630.335266 252.672974,632.616028 287.131531,617.430054 
	C293.985291,614.409546 300.168518,609.867554 306.972931,605.842590 
	C291.483276,585.695312 282.431458,564.284241 280.944794,539.056641 
	C280.909058,535.404602 280.697693,531.743530 280.883209,528.102783 
	C281.102325,523.803162 281.441742,519.480774 282.205048,515.254211 
	C282.454315,513.874023 284.194702,512.763123 285.253113,511.529022 
	C285.884064,512.933594 286.828369,514.289551 287.056183,515.756714 
	C287.276184,517.173157 286.574280,518.706543 286.592773,520.184692 
	C286.708130,529.421814 286.911926,538.657898 286.929413,548.729980 
	C293.872437,594.146851 327.391571,628.836975 372.156311,640.123352 
	C394.581238,645.777222 417.406738,646.887695 440.440582,643.123962 
	C466.518250,638.862793 490.131592,628.794067 509.810242,611.462158 
	C539.968567,584.900208 548.380371,550.631897 541.534119,511.863953 
	C540.849182,507.985504 540.573730,504.034790 540.902893,499.992035 
	C544.364868,499.278564 544.589600,501.855804 545.106201,504.130920 
	C549.628784,524.046021 550.222046,543.980408 545.077576,564.557556 
	C540.166870,584.809448 528.398499,600.912476 514.089172,615.390259 
	C538.348999,631.829590 563.719482,631.750916 588.432007,618.509033 
	C620.994202,601.061096 641.851074,574.179565 647.702576,536.824402 
	C647.926819,535.392578 649.879639,534.231445 651.027039,532.944214 
	C651.540771,534.495850 652.793945,536.238708 652.450134,537.568665 
	C649.922302,547.347290 648.136597,557.519592 644.045715,566.638611 
	C639.475830,576.825317 632.722595,586.032593 626.497925,596.366211 
	C634.899902,595.229065 643.361145,594.185913 651.789246,592.922424 
	C670.415405,590.130188 687.009521,582.615967 700.426331,569.450195 
	C706.974304,563.024719 713.104126,555.526672 717.199402,547.394348 
	C723.899902,534.088501 727.176758,519.535706 725.435852,504.379059 
	C724.295715,494.452454 722.763184,484.570892 721.285400,473.786652 
	C718.793945,475.453827 717.561768,476.253265 716.355164,477.089508 
	C704.859070,485.057129 692.277893,490.545563 678.562378,493.263672 
	C676.980896,493.577087 675.113281,492.446381 673.378296,491.985229 
	C674.673035,490.793030 675.893188,489.500519 677.297424,488.455383 
	C677.904358,488.003632 678.895935,488.081238 679.705322,487.887146 
	C709.298157,480.790131 731.047607,464.181854 742.530579,435.483337 
	C745.842957,427.204926 748.302490,418.585236 751.724670,409.763977 
	C753.445374,406.724060 755.216309,403.711304 756.877930,400.639435 
	C763.280457,388.802643 770.955200,377.443542 775.693420,364.970947 
	C781.442627,349.837097 784.729248,333.764832 789.008362,318.078644 
	C789.633606,315.786621 789.854919,313.384430 790.221863,311.270874 
	C780.835388,312.866455 772.017273,314.365417 762.820679,315.256104 
	C760.730896,312.566254 762.303345,311.519318 765.646118,310.917664 
	C772.913757,309.366730 780.169617,307.757538 787.454346,306.291534 
	C790.682617,305.641846 791.853882,303.495148 791.919495,300.597382 
	C792.312439,283.253143 792.603455,265.906525 793.007935,248.562561 
	C793.086670,245.184799 791.494629,244.654617 788.631897,245.282013 
	C784.113342,246.272293 779.558411,247.096603 774.359192,247.628189 
	C771.268372,245.528580 772.570374,244.027191 775.820496,242.746170 
	C781.135925,241.617950 786.451355,240.489731 792.851013,239.131378 
	C789.131042,220.144867 785.518250,201.705597 781.920776,183.344437 
	C776.374023,184.153168 772.161926,184.767319 767.151978,185.166122 
	C762.550903,184.454010 764.937866,182.066025 766.809814,180.040527 
	C770.728455,179.621338 774.647156,179.202133 779.354675,178.698547 
	C772.052124,156.949326 763.506653,136.666946 749.809631,119.307549 
	C743.681030,122.822258 737.989380,125.871788 732.573547,129.350616 
	C731.298523,130.169586 730.111877,132.551422 730.312683,134.018829 
	C732.040955,146.646423 734.016663,159.242844 736.161377,171.807144 
	C736.416077,173.298904 737.881836,175.356033 739.208801,175.758804 
	C744.904236,177.487457 750.757751,178.695435 757.154419,180.415741 
	C759.692688,182.482742 759.190979,184.102402 755.518066,185.196136 
	C749.421814,183.933594 743.325562,182.671051 737.820496,181.530960 
	C736.921021,197.107407 735.975220,212.694702 735.217102,228.291122 
	C735.163147,229.399857 736.210449,231.011932 737.215454,231.650406 
	C744.528198,236.295959 752.103455,240.413071 761.428894,241.967957 
	C764.731934,243.814499 765.210083,245.555649 760.414673,247.043930 
	C752.584900,245.420425 745.093567,242.994095 738.437805,238.345398 
	C736.170532,236.761841 733.746765,235.953430 733.014038,240.019165 
	C730.543762,253.725891 724.772217,266.148499 718.369873,278.375793 
	C714.781921,285.228149 716.609985,291.651703 722.808411,296.529327 
	C723.978577,297.450165 724.955811,298.614838 726.119385,299.545441 
	C733.112366,305.138336 740.624329,309.453400 750.515686,309.505829 
	C753.480530,312.328888 751.905823,313.606506 748.023682,314.179535 
	C734.862244,314.098969 725.648376,306.115051 716.280884,297.590759 
	C714.780945,304.921387 713.427612,311.535461 712.333984,316.880432 
	C718.955017,322.295410 725.810974,326.613342 731.029175,332.406525 
	C748.253784,351.528656 754.259033,374.850311 754.302429,400.017242 
	C754.304565,401.231079 752.338318,402.448334 750.673584,403.054260 
	C750.115417,399.033997 749.306335,395.030151 749.041443,390.990662 
	C747.700134,370.534302 741.245300,352.050812 727.985352,336.233093 
	C723.296082,330.639221 717.616150,326.218781 710.434204,323.347198 
	C708.438354,328.422058 706.626343,333.029297 704.199280,337.966248 
	C696.591309,348.242126 689.075134,358.588287 681.305603,368.740509 
	C679.541931,371.044952 676.899658,372.676971 674.661804,374.618500 
	C674.197144,374.144897 673.732483,373.671265 673.267822,373.197662 
	C674.860107,371.251892 676.319946,369.177521 678.065002,367.380035 
	C698.370361,346.464447 708.260193,320.634216 711.750244,292.413391 
	C714.282898,271.934479 709.458069,251.917969 702.237488,232.846146 
	C694.046570,211.211151 679.814514,193.680634 661.432617,179.716873 
	C652.290405,172.771988 642.075867,167.825470 629.700500,166.451523 
	C633.931519,181.103302 636.071533,195.563599 634.729492,210.227371 
	C633.423645,224.495453 631.571960,238.761505 624.327026,251.557266 
	C623.957947,249.007416 624.433472,246.661835 625.134094,244.385544 
	C634.772400,213.069061 631.928528,182.546265 618.338867,153.106598 
	C613.784851,143.241043 607.849426,133.839539 601.417236,125.051704 
	C589.048584,108.153336 573.426758,94.778664 553.968933,86.523048 
	C541.767029,81.346008 529.630737,75.335022 516.845642,72.360077 
	C493.776886,66.992256 470.644897,67.754211 448.662079,78.372078 
	C444.781433,80.246475 440.132477,80.921829 436.772949,83.411873 
	C425.601013,91.692253 414.005463,99.672081 407.195923,112.484978 
	C406.571930,113.659042 404.900085,114.276192 403.714813,115.151947 
	C403.371338,114.764297 403.027863,114.376640 402.684357,113.988991 
	C406.456055,108.162285 409.828766,102.020584 414.110718,96.596710 
	C418.467285,91.078384 423.719421,86.267105 428.858643,80.851982 
	C420.828339,74.469704 413.196014,67.030663 404.327911,61.615273 
	C378.592316,45.899525 350.479553,40.711861 320.588989,44.971729 
	C289.158875,49.451012 261.792328,62.155689 239.355133,84.845612 
	C230.112381,94.192474 222.420120,104.686150 216.597931,116.968994 
	C218.536667,117.411339 219.969498,117.756706 221.410400,118.064232 
	C240.702194,122.181564 258.561340,129.424164 273.759857,142.331482 
	C289.667114,155.840652 298.768494,173.496658 304.275940,193.240891 
	C305.250946,196.736313 306.387451,198.847366 310.715698,199.167236 
	C319.491608,199.815811 328.463959,200.387909 336.892822,202.687027 
	C367.145630,210.938965 395.273560,223.823898 419.830872,243.697464 
	C430.137939,252.038727 439.133728,261.565979 443.963470,274.222168 
	C444.763641,276.318970 444.685547,279.080994 444.126068,281.313232 
	C440.365143,296.319183 431.356720,308.081665 420.811920,318.999664 
	C402.042664,338.433197 379.374756,351.524078 354.236603,360.678497 
	C340.737732,365.594299 326.400177,365.128204 312.384491,366.588531 
	C309.019104,366.939178 307.684021,368.204071 306.446259,371.125946 
	C287.799408,415.144257 259.535553,451.591583 220.856949,479.914825 
	C206.176407,490.664978 189.852676,497.768005 172.624832,503.035797 
	C171.155716,503.484985 169.196655,502.331848 167.742874,501.223755 
	C169.627411,500.089966 171.379562,498.552307 173.416840,497.884430 
	C195.305679,490.708557 215.423279,480.505646 232.551193,463.971222 
	C232.717789,463.655518 232.884384,463.339844 232.995392,463.009949 
	C232.995392,463.009949 233.034180,463.052307 233.723114,462.998444 
	C237.407730,459.916992 241.393417,457.128571 244.725891,453.704407 
	C260.983337,436.999664 275.716461,419.029999 287.327759,398.763000 
	C293.219513,388.479218 298.100555,377.616394 304.072937,365.755524 
	C292.855713,366.495850 286.629852,360.826416 280.839600,353.271606 
	C267.906219,337.054871 259.589539,318.934845 257.781952,298.046967 
	C257.325073,292.767365 257.754303,286.704163 255.277069,282.459778 
	C250.725952,274.662140 244.444717,267.794708 234.997025,265.154755 
	C227.280960,281.293274 216.488266,294.530914 201.366226,304.260406 
	C194.199081,308.871735 186.992065,312.476074 177.498260,312.091553 
	C172.044113,313.388184 166.589951,314.684845 160.630554,315.275085 
	C146.711166,316.029480 134.048370,311.955719 122.268700,304.931763 
	C116.899521,301.730225 111.509674,298.387054 106.769646,294.355164 
	C101.784203,290.114594 97.564125,284.974274 92.659256,279.861908 
	C91.548370,282.097473 90.194847,284.183990 89.428429,286.467529 
	C84.591064,300.880585 79.883911,315.337341 75.020195,330.424347 
	C74.986893,330.859100 74.953590,331.293854 74.492302,331.911621 
	C74.492302,331.911621 74.036720,332.007141 73.601013,332.118988 
	C73.322975,332.259644 73.114586,332.469482 72.376068,333.068848 
M22.302530,243.072617 
	C15.114244,250.267319 6.467253,256.645966 6.162530,268.125214 
	C5.925582,277.051300 14.203205,295.717804 19.111244,299.431122 
	C18.718307,289.550110 18.305798,279.176941 18.021435,268.099579 
	C19.604916,265.107056 21.296959,264.688873 23.010952,268.743744 
	C23.345270,277.184052 22.893764,285.752777 24.246044,294.026703 
	C25.474606,301.543671 28.665215,308.740021 31.243580,316.684418 
	C38.523937,322.897644 45.844028,329.065125 53.069824,335.341187 
	C57.458076,339.152618 61.444477,338.857819 64.986107,334.901611 
	C59.941093,326.855286 54.959518,318.910126 49.957508,310.219757 
	C43.044308,294.524078 40.886360,278.319305 44.996975,260.809296 
	C45.908169,256.697815 48.149612,256.856720 50.868229,259.721100 
	C50.407230,261.479797 49.883579,263.224792 49.495029,264.999359 
	C46.032360,280.813904 48.132896,295.834229 56.078499,310.734314 
	C59.080326,318.250336 63.728710,324.605957 69.713333,331.111938 
	C71.623764,323.390472 73.286736,316.669189 75.081993,309.224304 
	C79.101639,299.389893 82.889351,289.450714 87.261604,279.775635 
	C88.881126,276.191895 89.035973,273.444519 87.093788,270.028320 
	C80.809929,258.975494 76.168648,247.271881 74.392479,234.588364 
	C73.699402,229.639191 73.224144,224.659500 72.649681,219.693726 
	C72.111809,219.511459 71.573944,219.329208 71.036079,219.146957 
	C67.015289,226.481949 62.994503,233.816925 58.338268,241.544693 
	C56.595013,243.428116 54.823547,244.896439 52.962326,241.229034 
	C57.545921,232.927902 62.129520,224.626785 66.713120,216.325653 
	C58.600521,219.435028 51.072968,223.747070 43.319725,227.605606 
	C33.904190,232.291428 29.385906,240.407425 26.202578,250.467087 
	C24.811571,251.876266 23.420565,253.285446 21.736187,254.031540 
	C22.163355,250.359131 22.590525,246.686707 23.310707,242.911957 
	C23.202656,242.935745 23.094604,242.959534 22.302530,243.072617 
M502.584076,656.607727 
	C506.707977,646.700623 510.731537,636.749939 515.008240,626.909241 
	C516.581299,623.289551 515.501160,621.009460 512.065369,620.127869 
	C510.144745,619.634949 507.415436,619.615662 505.902222,620.640503 
	C494.628174,628.275452 483.519348,636.114868 470.283966,640.202515 
	C469.121979,640.561401 467.923309,642.069885 467.500366,643.304321 
	C466.433167,646.419373 465.799194,649.682800 464.526642,653.484619 
	C463.043152,658.753784 461.562836,664.023865 460.075439,669.291931 
	C458.111572,676.247559 464.510651,682.748901 472.359131,681.343872 
	C471.971710,678.260132 471.278992,675.150757 471.317474,672.050598 
	C471.337097,670.470703 472.670197,668.907166 473.409607,667.336182 
	C474.315735,668.643066 475.675171,669.835327 476.040497,671.279114 
	C477.022400,675.159485 477.579529,679.147339 478.456390,683.913757 
	C489.942719,677.028687 496.821930,667.760925 502.584076,656.607727 
M324.302490,241.533203 
	C321.446991,244.966278 319.899170,243.103622 319.278961,239.816818 
	C326.688538,229.820618 334.098083,219.824432 342.062500,209.079697 
	C325.684540,206.353943 309.735352,202.244766 292.959564,203.209244 
	C292.531342,197.903259 297.494110,199.173401 300.155731,197.410278 
	C299.504547,195.173981 298.872253,192.945969 298.207245,190.727783 
	C291.087128,166.977997 277.855438,147.677704 255.627747,135.991699 
	C222.457703,118.552841 187.224640,114.987274 151.085037,124.152626 
	C101.077896,136.834915 76.651009,184.288345 78.120590,222.873520 
	C79.095573,229.261002 79.682808,235.736893 81.115486,242.020020 
	C86.182152,264.240265 97.903503,282.877655 116.177887,295.906555 
	C128.806931,304.910522 143.480682,311.008667 160.190292,310.524261 
	C171.839279,310.186615 182.936554,309.289246 193.741257,302.931335 
	C207.483383,296.212524 217.126495,285.185577 225.348724,272.712006 
	C232.131897,262.421600 231.553909,251.076508 230.119965,239.517563 
	C227.583496,219.071198 215.881058,207.728226 195.410629,207.348297 
	C187.928650,207.209427 180.049164,207.862656 174.143555,215.031097 
	C161.258224,227.875992 161.930923,248.196320 175.867172,260.079346 
	C174.354263,262.559723 173.813202,262.733368 171.144485,260.183167 
	C162.359268,251.788071 159.010010,241.383545 160.555847,229.446030 
	C161.521271,221.990646 164.425568,215.312256 170.404404,210.476944 
	C180.382294,202.407440 191.994247,201.250305 204.223999,202.916016 
	C215.834366,204.497375 224.003098,210.764069 229.424637,221.684082 
	C234.600723,229.688370 236.016830,238.796936 235.814819,247.934937 
	C235.643768,255.671249 235.877060,262.128693 245.005341,264.488342 
	C247.085938,265.026154 248.880249,267.017303 250.581253,268.583893 
	C252.408905,270.267181 253.971527,272.238251 255.055725,273.430481 
	C257.810394,262.667847 260.545685,251.980865 263.759399,240.759491 
	C267.966736,228.567474 274.724823,217.930115 283.883911,208.927002 
	C285.570374,207.269241 288.595642,206.973495 290.959442,206.774353 
	C290.177917,208.162979 289.653534,209.805054 288.574188,210.900146 
	C279.947845,219.652451 273.696899,229.860840 268.853333,241.126572 
	C263.170258,254.344971 260.989136,268.207153 261.157837,282.359253 
	C261.257812,290.746704 262.564514,299.199371 264.127502,307.471771 
	C266.684113,321.003387 272.104736,333.392395 281.054169,344.807465 
	C285.119598,349.515289 288.353149,355.799683 293.476288,358.502991 
	C298.981781,361.407928 306.248596,361.658173 312.770050,361.775299 
	C320.320374,361.910889 327.904907,360.724304 335.455841,359.932739 
	C338.157410,359.649567 340.804291,358.844666 344.059357,358.154205 
	C338.314972,351.843536 333.053650,346.160004 327.909210,340.372559 
	C325.214630,337.341156 322.725189,334.127411 320.099518,330.233368 
	C320.061005,327.876587 320.022491,325.519806 320.698700,323.202332 
	C322.512695,325.144440 324.326691,327.086548 326.300842,329.668488 
	C333.219604,337.715424 340.055542,345.836700 347.143463,353.731750 
	C348.248779,354.962891 350.763336,356.092438 352.184357,355.693817 
	C364.367279,352.276367 375.500031,346.541321 386.490997,339.749420 
	C382.719849,334.858002 379.278870,330.394867 375.773224,325.244263 
	C366.973236,308.853943 362.785614,291.682556 367.437286,272.568909 
	C369.647461,269.764496 371.249115,270.273041 372.127686,274.353882 
	C367.670197,293.565979 373.045532,310.739746 383.306824,327.575317 
	C385.725891,330.675049 388.144958,333.774750 391.107788,337.571228 
	C393.962463,334.903534 396.518829,332.514618 399.796936,330.076172 
	C400.693970,329.691162 401.725861,329.478027 402.468140,328.895752 
	C416.870636,317.597870 428.963562,304.326141 437.062744,287.745300 
	C439.679626,282.387939 440.659149,277.277069 437.332581,271.295685 
	C428.789032,255.933823 415.643616,245.575439 401.338562,236.332199 
	C400.355316,235.696854 397.756897,235.984573 397.001953,236.824646 
	C391.494934,242.952805 386.267670,249.332367 380.301453,255.909775 
	C377.248901,257.744476 375.963440,256.463318 376.244598,252.795258 
	C382.013519,245.819382 387.782440,238.843506 394.419403,230.817947 
	C380.216309,224.777908 365.970612,218.672897 351.659607,212.725021 
	C350.544739,212.261642 348.466431,212.366348 347.690613,213.104874 
	C338.915131,221.458939 330.096741,229.817825 324.302490,241.533203 
M664.925598,634.317017 
	C664.925598,621.422302 664.925598,608.527527 664.925598,596.348022 
	C652.132446,597.827698 639.660828,599.210632 627.209167,600.755432 
	C624.371399,601.107483 621.077698,601.271118 618.895569,602.804565 
	C610.485596,608.714233 602.418274,615.114502 594.293213,621.422119 
	C593.397705,622.117249 592.226929,623.559204 592.414062,624.371521 
	C593.782837,630.313721 595.465881,636.183655 596.982727,642.883667 
	C599.166443,651.927673 600.948181,661.095276 603.679382,669.970825 
	C605.411743,675.600342 608.329590,680.919678 611.181091,686.123047 
	C612.305908,688.175476 614.445435,690.302551 616.578247,690.996826 
	C618.774292,691.711731 621.814575,691.298035 623.913696,690.241638 
	C625.000488,689.694824 625.368530,686.628906 625.161499,684.803040 
	C624.506470,679.024475 623.275818,673.311218 622.619385,667.532776 
	C622.456543,666.099304 623.622437,664.514893 624.177490,662.999878 
	C625.328186,664.249084 627.187256,665.342346 627.502563,666.775330 
	C628.644348,671.964233 629.180969,677.282715 630.115784,682.521912 
	C630.796692,686.337952 630.567383,690.829041 635.672668,692.076660 
	C640.992310,693.376709 644.687683,690.746094 647.636047,686.763550 
	C649.214417,684.631592 650.579407,682.323120 651.869202,679.999207 
	C659.605042,666.060425 661.756958,650.508545 664.925598,634.317017 
M249.011047,632.069397 
	C233.461929,632.494873 218.114822,631.311279 203.286789,625.894043 
	C201.305084,646.398987 213.107666,694.630920 226.891312,700.973755 
	C226.588333,696.255188 226.058365,691.675171 226.095291,687.099792 
	C226.115158,684.637146 224.132782,680.294006 228.353027,680.209656 
	C232.518372,680.126465 230.601135,684.542664 230.934296,687.007629 
	C231.671722,692.463867 232.058701,697.967468 232.572021,703.280151 
	C241.108261,703.118042 246.201309,699.283325 250.782684,694.039001 
	C259.748810,683.775513 266.579590,672.230591 272.000519,659.824585 
	C273.640472,656.071594 274.557068,652.002563 276.374359,647.572998 
	C278.184570,640.604736 279.994812,633.636536 281.831818,626.565125 
	C270.393127,628.582153 260.162933,630.386047 249.011047,632.069397 
M454.061646,671.206909 
	C456.568481,662.362061 459.075287,653.517212 461.755646,644.060181 
	C450.346375,646.196350 440.141663,648.106934 429.013153,649.899353 
	C410.614655,650.794739 392.306549,650.170776 373.584717,645.546021 
	C375.182587,656.525696 376.672424,666.350952 378.031372,676.194336 
	C380.245148,692.229858 383.561523,707.979126 391.109192,722.456482 
	C393.127594,726.328064 396.311646,729.591858 398.960571,733.134705 
	C398.768433,723.706238 397.675629,714.983704 396.929840,706.231506 
	C396.795746,704.657776 398.091553,702.962097 398.727142,701.322754 
	C399.758362,702.756042 401.453796,704.082886 401.703369,705.641357 
	C402.674988,711.708069 402.841644,717.914246 403.990265,723.938416 
	C404.789093,728.127991 406.702637,732.105042 408.118225,736.177063 
	C412.351288,734.089417 416.603027,732.038147 420.798828,729.878174 
	C421.492889,729.520874 421.935638,728.682129 422.505859,728.076599 
	C437.655609,711.988708 446.051178,692.133545 454.061646,671.206909 
M652.546875,100.853317 
	C662.950256,115.807686 676.333923,125.023087 694.956482,128.591339 
	C714.135864,132.266281 730.038391,127.120354 744.268005,115.949173 
	C757.790466,105.333191 765.137634,90.921471 766.842957,73.164711 
	C769.348816,47.072155 753.701111,23.480289 733.378662,13.846973 
	C718.962952,7.013609 703.446594,5.817209 687.285461,10.240503 
	C673.782471,13.936277 663.608398,21.157736 655.389343,31.877153 
	C646.877930,42.977753 644.473816,56.538143 644.423767,69.558243 
	C644.384460,79.769295 649.396545,89.999786 652.546875,100.853317 
z"/>
<path fill="#3E3E3E" opacity="1.000000" stroke="none" 
	d="
M799.000000,270.571533 
	C798.803040,269.150726 798.606018,267.301422 798.704529,265.226074 
	C799.000000,266.714355 799.000000,268.428711 799.000000,270.571533 
z"/>
<path fill="#FEF4BA" opacity="1.000000" stroke="none" 
	d="
M167.465179,501.923035 
	C169.196655,502.331848 171.155716,503.484985 172.624832,503.035797 
	C189.852676,497.768005 206.176407,490.664978 220.856949,479.914825 
	C259.535553,451.591583 287.799408,415.144257 306.446259,371.125946 
	C307.684021,368.204071 309.019104,366.939178 312.384491,366.588531 
	C326.400177,365.128204 340.737732,365.594299 354.236603,360.678497 
	C379.374756,351.524078 402.042664,338.433197 420.811920,318.999664 
	C431.356720,308.081665 440.365143,296.319183 444.126068,281.313232 
	C444.685547,279.080994 444.763641,276.318970 443.963470,274.222168 
	C439.133728,261.565979 430.137939,252.038727 419.830872,243.697464 
	C395.273560,223.823898 367.145630,210.938965 336.892822,202.687027 
	C328.463959,200.387909 319.491608,199.815811 310.715698,199.167236 
	C306.387451,198.847366 305.250946,196.736313 304.275940,193.240891 
	C298.768494,173.496658 289.667114,155.840652 273.759857,142.331482 
	C258.561340,129.424164 240.702194,122.181564 221.410400,118.064232 
	C219.969498,117.756706 218.536667,117.411339 216.597931,116.968994 
	C222.420120,104.686150 230.112381,94.192474 239.355133,84.845612 
	C261.792328,62.155689 289.158875,49.451012 320.588989,44.971729 
	C350.479553,40.711861 378.592316,45.899525 404.327911,61.615273 
	C413.196014,67.030663 420.828339,74.469704 428.858643,80.851982 
	C423.719421,86.267105 418.467285,91.078384 414.110718,96.596710 
	C409.828766,102.020584 406.456055,108.162285 402.684357,113.988991 
	C403.027863,114.376640 403.371338,114.764297 403.714813,115.151947 
	C404.900085,114.276192 406.571930,113.659042 407.195923,112.484978 
	C414.005463,99.672081 425.601013,91.692253 436.772949,83.411873 
	C440.132477,80.921829 444.781433,80.246475 448.662079,78.372078 
	C470.644897,67.754211 493.776886,66.992256 516.845642,72.360077 
	C529.630737,75.335022 541.767029,81.346008 553.968933,86.523048 
	C573.426758,94.778664 589.048584,108.153336 601.417236,125.051704 
	C607.849426,133.839539 613.784851,143.241043 618.338867,153.106598 
	C631.928528,182.546265 634.772400,213.069061 625.134094,244.385544 
	C624.433472,246.661835 623.957947,249.007416 624.327026,251.557266 
	C631.571960,238.761505 633.423645,224.495453 634.729492,210.227371 
	C636.071533,195.563599 633.931519,181.103302 629.700500,166.451523 
	C642.075867,167.825470 652.290405,172.771988 661.432617,179.716873 
	C679.814514,193.680634 694.046570,211.211151 702.237488,232.846146 
	C709.458069,251.917969 714.282898,271.934479 711.750244,292.413391 
	C708.260193,320.634216 698.370361,346.464447 678.065002,367.380035 
	C676.319946,369.177521 674.860107,371.251892 673.267822,373.197662 
	C673.732483,373.671265 674.197144,374.144897 674.661804,374.618500 
	C676.899658,372.676971 679.541931,371.044952 681.305603,368.740509 
	C689.075134,358.588287 696.591309,348.242126 704.653748,338.131256 
	C710.488037,345.047943 716.760925,351.281433 721.046875,358.667847 
	C728.201660,370.998383 730.022827,385.314606 727.465698,398.823395 
	C722.461792,425.257935 709.830566,447.689972 686.965942,463.449921 
	C672.985962,473.085907 657.763062,479.234009 640.911560,480.811798 
	C633.181763,481.535553 633.599731,480.462616 634.208557,488.036041 
	C635.645569,505.911957 629.397339,521.516846 620.173706,535.999084 
	C610.872925,550.602478 597.026917,559.672974 580.317078,563.893494 
	C568.786255,566.805847 557.040283,567.672913 545.397278,563.941101 
	C550.222046,543.980408 549.628784,524.046021 545.106201,504.130920 
	C544.589600,501.855804 544.364868,499.278564 540.361206,499.737549 
	C535.284973,493.553192 529.413147,491.839539 522.119568,493.618622 
	C522.119568,495.922760 522.385620,497.954346 522.075623,499.893829 
	C520.312988,510.919983 520.354797,522.734314 516.167542,532.772400 
	C506.530487,555.875244 486.199249,565.479248 462.647705,567.786499 
	C435.263275,570.469360 408.586182,565.973572 383.013153,555.743347 
	C379.538147,554.353271 377.368195,554.939636 374.526459,556.915466 
	C369.771729,560.221313 364.736847,563.167847 359.632202,565.917053 
	C350.947937,570.594177 341.398865,568.399963 332.191315,569.095215 
	C322.377075,569.836365 313.822144,566.793091 305.933258,561.538086 
	C299.483398,557.241760 293.356476,552.460510 287.086426,547.894287 
	C286.911926,538.657898 286.708130,529.421814 286.592773,520.184692 
	C286.574280,518.706543 287.276184,517.173157 287.056183,515.756714 
	C286.828369,514.289551 285.884064,512.933594 285.253113,511.529022 
	C284.194702,512.763123 282.454315,513.874023 282.205048,515.254211 
	C281.441742,519.480774 281.102325,523.803162 280.883209,528.102783 
	C280.697693,531.743530 280.909058,535.404602 280.584290,539.670654 
	C268.791229,548.610779 255.991867,551.661377 242.049255,549.945740 
	C236.845291,549.305298 231.320618,549.147644 226.593506,547.193970 
	C216.505615,543.024658 206.702545,538.088867 197.066635,532.936340 
	C192.337799,530.407654 188.267380,528.394592 182.921799,531.404724 
	C179.961761,533.071594 176.355499,533.956360 172.940109,534.375427 
	C165.067322,535.341553 156.667908,537.105835 150.172638,530.891785 
	C146.718460,527.587158 144.600067,522.886353 141.878693,518.815735 
	C142.179642,516.931519 142.823242,515.018677 142.669189,513.172424 
	C142.553482,511.785614 141.413071,510.484314 140.275696,508.704315 
	C137.951675,508.328400 135.983612,508.037628 134.226364,508.518036 
	C125.549767,510.890137 116.988922,515.192200 108.271942,515.495056 
	C99.180244,515.810974 89.499130,514.751404 80.782776,510.475311 
	C78.341148,509.277527 75.504021,508.885895 72.848320,508.124481 
	C72.848320,508.124481 72.944504,508.065674 72.871674,507.829529 
	C72.470009,507.407501 72.141182,507.221619 71.812347,507.035706 
	C60.871342,491.812683 55.507145,474.778198 57.660183,456.181366 
	C58.764542,446.642426 62.325443,437.375885 64.950874,428.035370 
	C65.460609,426.221863 66.778816,424.635651 68.228592,422.042084 
	C69.828300,427.550262 71.126495,432.020325 72.629356,437.168610 
	C71.292953,442.011230 71.418541,445.926544 74.565178,449.386597 
	C76.337868,451.335907 78.115295,453.280914 79.942398,455.570435 
	C86.683037,466.728485 92.467209,478.131104 102.390213,486.676147 
	C114.808784,497.370209 128.866760,504.139221 145.219559,505.747925 
	C147.682571,505.990204 151.126434,507.255676 152.588120,503.064819 
	C157.830215,502.664551 162.647690,502.293823 167.465179,501.923035 
z"/>
<path fill="#FDF3B9" opacity="1.000000" stroke="none" 
	d="
M291.002960,206.049103 
	C288.595642,206.973495 285.570374,207.269241 283.883911,208.927002 
	C274.724823,217.930115 267.966736,228.567474 263.206604,240.844543 
	C261.514648,239.530518 260.359314,238.144241 259.238861,236.730331 
	C251.589279,227.077011 241.893646,221.323425 229.335495,221.011780 
	C224.003098,210.764069 215.834366,204.497375 204.223999,202.916016 
	C191.994247,201.250305 180.382294,202.407440 170.404404,210.476944 
	C164.425568,215.312256 161.521271,221.990646 160.555847,229.446030 
	C159.010010,241.383545 162.359268,251.788071 171.144485,260.183167 
	C173.813202,262.733368 174.354263,262.559723 175.925873,259.404907 
	C177.196915,257.170227 178.384232,255.589783 179.625824,254.053192 
	C185.433472,246.865646 187.711655,238.659637 184.249954,230.057938 
	C182.033981,224.551590 177.963623,219.791519 174.724579,214.696899 
	C180.049164,207.862656 187.928650,207.209427 195.410629,207.348297 
	C215.881058,207.728226 227.583496,219.071198 230.119965,239.517563 
	C231.553909,251.076508 232.131897,262.421600 225.348724,272.712006 
	C217.126495,285.185577 207.483383,296.212524 192.958160,302.924103 
	C186.261688,302.271423 180.281860,301.988403 174.446228,300.918732 
	C146.845993,295.859467 126.739326,280.891571 115.908394,254.756393 
	C111.417076,243.918777 108.159721,232.554062 104.630333,221.338074 
	C101.309410,210.784546 93.191460,208.646118 85.055481,216.368454 
	C82.925827,218.389847 80.563614,220.166260 78.308205,222.055191 
	C76.651009,184.288345 101.077896,136.834915 151.085037,124.152626 
	C187.224640,114.987274 222.457703,118.552841 255.627747,135.991699 
	C277.855438,147.677704 291.087128,166.977997 298.207245,190.727783 
	C298.872253,192.945969 299.504547,195.173981 300.155731,197.410278 
	C297.494110,199.173401 292.531342,197.903259 292.773926,203.778503 
	C292.059845,204.914871 291.531403,205.481979 291.002960,206.049103 
z"/>
<path fill="#EFB97B" opacity="1.000000" stroke="none" 
	d="
M545.237427,564.249329 
	C557.040283,567.672913 568.786255,566.805847 580.317078,563.893494 
	C597.026917,559.672974 610.872925,550.602478 620.173706,535.999084 
	C629.397339,521.516846 635.645569,505.911957 634.208557,488.036041 
	C633.599731,480.462616 633.181763,481.535553 640.911560,480.811798 
	C657.763062,479.234009 672.985962,473.085907 686.965942,463.449921 
	C709.830566,447.689972 722.461792,425.257935 727.465698,398.823395 
	C730.022827,385.314606 728.201660,370.998383 721.046875,358.667847 
	C716.760925,351.281433 710.488037,345.047943 704.961304,337.966400 
	C706.626343,333.029297 708.438354,328.422058 710.434204,323.347198 
	C717.616150,326.218781 723.296082,330.639221 727.985352,336.233093 
	C741.245300,352.050812 747.700134,370.534302 749.041443,390.990662 
	C749.306335,395.030151 750.115417,399.033997 750.926208,403.744720 
	C751.170227,406.330780 751.161621,408.226410 751.153015,410.122009 
	C748.302490,418.585236 745.842957,427.204926 742.530579,435.483337 
	C731.047607,464.181854 709.298157,480.790131 679.705322,487.887146 
	C678.895935,488.081238 677.904358,488.003632 677.297424,488.455383 
	C675.893188,489.500519 674.673035,490.793030 673.378296,491.985229 
	C675.113281,492.446381 676.980896,493.577087 678.562378,493.263672 
	C692.277893,490.545563 704.859070,485.057129 716.355164,477.089508 
	C717.561768,476.253265 718.793945,475.453827 721.285400,473.786652 
	C722.763184,484.570892 724.295715,494.452454 725.435852,504.379059 
	C727.176758,519.535706 723.899902,534.088501 717.199402,547.394348 
	C713.104126,555.526672 706.974304,563.024719 700.426331,569.450195 
	C687.009521,582.615967 670.415405,590.130188 651.789246,592.922424 
	C643.361145,594.185913 634.899902,595.229065 626.497925,596.366211 
	C632.722595,586.032593 639.475830,576.825317 644.045715,566.638611 
	C648.136597,557.519592 649.922302,547.347290 652.450134,537.568665 
	C652.793945,536.238708 651.540771,534.495850 651.027039,532.944214 
	C649.879639,534.231445 647.926819,535.392578 647.702576,536.824402 
	C641.851074,574.179565 620.994202,601.061096 588.432007,618.509033 
	C563.719482,631.750916 538.348999,631.829590 514.089172,615.390259 
	C528.398499,600.912476 540.166870,584.809448 545.237427,564.249329 
z"/>
<path fill="#407AB5" opacity="1.000000" stroke="none" 
	d="
M167.604034,501.573425 
	C162.647690,502.293823 157.830215,502.664551 152.419708,502.696960 
	C150.510956,501.846741 149.221832,500.978424 147.875336,500.877747 
	C133.361221,499.792908 120.517159,494.542572 109.207634,485.494171 
	C100.310158,478.375610 92.738144,470.196686 89.500885,459.136047 
	C104.348068,459.269440 118.537926,460.150696 132.543610,464.331177 
	C139.661316,466.455750 147.724762,467.672729 154.983963,466.643311 
	C177.836151,463.402771 197.513489,452.748688 215.221313,437.662628 
	C217.024689,436.042633 218.525436,434.531982 220.012787,433.010651 
	C219.999390,433.000000 220.019699,433.028320 220.360779,433.005341 
	C223.113205,430.641815 225.524551,428.301239 228.232208,425.804077 
	C231.330597,422.183746 234.546936,418.970428 236.830444,415.193176 
	C239.717285,410.417969 237.683258,405.866394 234.468628,401.964722 
	C230.282333,396.883667 227.055237,396.101288 221.433945,397.814880 
	C208.323730,401.811371 195.227570,405.873383 182.020416,409.528229 
	C157.022705,416.445953 131.646545,419.830780 105.879379,414.858429 
	C96.903046,413.126251 88.171379,409.932220 79.501060,406.909302 
	C76.292442,405.790588 72.320274,402.985748 74.329773,399.169800 
	C76.563927,394.927185 80.281296,389.229797 84.115654,388.565033 
	C90.635582,387.434692 97.776054,389.610382 104.590324,390.778534 
	C105.496811,390.933960 106.408173,393.269806 106.592552,394.690002 
	C106.726395,395.720917 105.663673,396.907196 105.134483,398.024170 
	C114.247864,389.225830 121.209450,378.376404 132.259872,372.466827 
	C134.943390,375.506348 137.190231,378.051270 139.624451,380.856079 
	C150.718277,389.122528 162.971344,393.687042 176.456009,392.797760 
	C196.638641,391.466827 208.703049,387.085876 212.654831,380.482727 
	C196.136459,387.095856 179.880676,391.803894 161.887451,388.152435 
	C171.330795,385.144989 180.260986,382.841827 188.753326,379.444214 
	C197.236984,376.049957 205.285233,371.563843 209.709824,362.782990 
	C200.453995,371.620087 189.803375,377.810822 177.463776,381.342804 
	C164.768097,384.976654 152.367844,385.185455 139.923325,379.578766 
	C138.338470,376.018890 141.030197,376.986359 142.221710,377.090363 
	C146.172623,377.435364 150.086548,378.277008 154.039459,378.513214 
	C171.148788,379.535522 187.028976,376.929230 199.882431,363.980194 
	C204.118103,359.713074 209.595215,356.695435 214.377930,352.944824 
	C216.071976,351.616394 217.389267,349.807526 218.878555,348.217987 
	C217.327957,346.850555 215.994186,344.926514 214.185379,344.221863 
	C209.119339,342.248322 203.819504,340.885773 198.680313,339.086761 
	C189.018784,335.704834 179.697678,330.976898 168.679260,331.670593 
	C165.316940,331.267761 162.260391,330.916840 159.230148,331.073669 
	C157.756348,331.149963 156.331665,332.175293 154.511414,332.870605 
	C153.121735,332.973694 152.105392,332.977173 150.818024,332.681427 
	C146.115616,332.692261 141.684219,333.002319 137.252838,333.312408 
	C137.073822,332.892365 136.894806,332.472351 136.715775,332.052338 
	C139.537003,330.716919 142.230347,328.753265 145.200333,328.148804 
	C163.408279,324.443054 181.017960,327.183350 198.206711,333.696716 
	C202.117676,335.178711 206.096024,336.482941 210.043350,337.868988 
	C192.761154,325.407501 172.489838,325.075897 152.362183,323.088715 
	C157.417953,320.881714 162.461258,318.741394 167.644760,318.318237 
	C187.066452,316.732666 206.731369,314.193390 224.539902,325.928986 
	C217.805450,319.419830 209.930405,315.886475 200.813980,314.937195 
	C193.286545,314.153320 185.789368,313.078796 178.278778,312.133087 
	C186.992065,312.476074 194.199081,308.871735 201.366226,304.260406 
	C216.488266,294.530914 227.280960,281.293274 234.997025,265.154755 
	C244.444717,267.794708 250.725952,274.662140 255.277069,282.459778 
	C257.754303,286.704163 257.325073,292.767365 257.781952,298.046967 
	C259.589539,318.934845 267.906219,337.054871 280.956055,353.955719 
	C276.103424,368.381012 271.722687,382.372559 266.010132,395.797394 
	C259.473907,411.157898 251.841431,426.057404 244.511536,441.072388 
	C240.886963,448.497253 236.872330,455.731720 233.034180,463.052307 
	C233.034180,463.052307 232.995392,463.009949 232.756744,463.102173 
	C232.355164,463.519135 232.192230,463.843872 232.029297,464.168610 
	C215.423279,480.505646 195.305679,490.708557 173.416840,497.884430 
	C171.379562,498.552307 169.627411,500.089966 167.604034,501.573425 
M238.267426,393.993500 
	C237.930283,393.903320 237.593155,393.813141 237.256012,393.722992 
	C237.432999,394.212006 237.609985,394.700989 237.932175,395.868317 
	C240.149277,398.685730 242.366379,401.503143 244.583481,404.320587 
	C245.106766,403.879852 245.630051,403.439117 246.153320,402.998383 
	C243.626541,400.126251 241.099747,397.254120 238.267426,393.993500 
M257.292938,351.061127 
	C256.192139,348.319641 254.653107,345.668793 254.063950,342.821442 
	C250.980225,327.917786 241.889191,317.363800 229.922806,308.845764 
	C229.146713,308.293304 227.842392,308.482910 226.783798,308.327332 
	C228.150070,310.682526 229.848175,311.929260 231.420853,313.317993 
	C241.836731,322.515717 249.801620,333.207367 251.964218,347.384796 
	C252.576202,351.396790 251.792206,356.212799 257.998199,356.743652 
	C258.910583,356.821716 259.781738,358.159515 260.547974,359.024292 
	C262.945770,361.730469 265.284210,364.489227 267.645660,367.227600 
	C268.068451,366.911713 268.491241,366.595825 268.914032,366.279907 
	C265.189148,361.403961 261.464264,356.527985 257.292938,351.061127 
z"/>
<path fill="#EFBA7B" opacity="1.000000" stroke="none" 
	d="
M287.007904,548.312134 
	C293.356476,552.460510 299.483398,557.241760 305.933258,561.538086 
	C313.822144,566.793091 322.377075,569.836365 332.191315,569.095215 
	C341.398865,568.399963 350.947937,570.594177 359.632202,565.917053 
	C364.736847,563.167847 369.771729,560.221313 374.526459,556.915466 
	C377.368195,554.939636 379.538147,554.353271 383.013153,555.743347 
	C408.586182,565.973572 435.263275,570.469360 462.647705,567.786499 
	C486.199249,565.479248 506.530487,555.875244 516.167542,532.772400 
	C520.354797,522.734314 520.312988,510.919983 522.075623,499.893829 
	C522.385620,497.954346 522.119568,495.922760 522.119568,493.618622 
	C529.413147,491.839539 535.284973,493.553192 539.963867,499.800354 
	C540.573730,504.034790 540.849182,507.985504 541.534119,511.863953 
	C548.380371,550.631897 539.968567,584.900208 509.810242,611.462158 
	C490.131592,628.794067 466.518250,638.862793 440.440582,643.123962 
	C417.406738,646.887695 394.581238,645.777222 372.156311,640.123352 
	C327.391571,628.836975 293.872437,594.146851 287.007904,548.312134 
z"/>
<path fill="#EFBA7B" opacity="1.000000" stroke="none" 
	d="
M141.661469,519.164307 
	C144.600067,522.886353 146.718460,527.587158 150.172638,530.891785 
	C156.667908,537.105835 165.067322,535.341553 172.940109,534.375427 
	C176.355499,533.956360 179.961761,533.071594 182.921799,531.404724 
	C188.267380,528.394592 192.337799,530.407654 197.066635,532.936340 
	C206.702545,538.088867 216.505615,543.024658 226.593506,547.193970 
	C231.320618,549.147644 236.845291,549.305298 242.049255,549.945740 
	C255.991867,551.661377 268.791229,548.610779 280.526520,540.135254 
	C282.431458,564.284241 291.483276,585.695312 306.972931,605.842590 
	C300.168518,609.867554 293.985291,614.409546 287.131531,617.430054 
	C252.672974,632.616028 218.582169,630.335266 185.853210,612.675598 
	C170.490875,604.386414 157.627563,592.137695 150.031448,576.177002 
	C141.576492,558.411743 137.474487,539.431885 141.661469,519.164307 
z"/>
<path fill="#292A2A" opacity="1.000000" stroke="none" 
	d="
M290.981201,206.411728 
	C291.531403,205.481979 292.059845,204.914871 292.827820,204.177429 
	C309.735352,202.244766 325.684540,206.353943 342.062500,209.079697 
	C334.098083,219.824432 326.688538,229.820618 318.524841,240.113632 
	C308.675140,240.528244 299.569702,240.436554 290.488525,240.862167 
	C286.605743,241.044144 282.498871,241.698410 279.010956,243.279129 
	C276.516602,244.409561 274.882996,247.439270 272.865326,249.621552 
	C274.981506,251.480972 276.800903,254.177551 279.266388,255.051529 
	C288.743774,258.411041 298.428131,261.186707 308.044159,264.618164 
	C307.824158,267.526459 307.550934,269.993591 307.373932,272.467590 
	C306.506256,284.595551 306.223083,296.721191 310.164703,308.421906 
	C310.786346,310.267212 313.336975,311.462646 315.171967,313.262390 
	C316.893463,316.765198 318.438721,319.964111 319.983948,323.163025 
	C320.022491,325.519806 320.061005,327.876587 319.714844,330.657623 
	C316.137817,331.916351 312.867859,332.531250 309.767426,333.626129 
	C300.115753,337.034485 290.528320,340.624634 280.915955,344.144257 
	C272.104736,333.392395 266.684113,321.003387 264.127502,307.471771 
	C262.564514,299.199371 261.257812,290.746704 261.157837,282.359253 
	C260.989136,268.207153 263.170258,254.344971 268.853333,241.126572 
	C273.696899,229.860840 279.947845,219.652451 288.574188,210.900146 
	C289.653534,209.805054 290.177917,208.162979 290.981201,206.411728 
z"/>
<path fill="#FA8424" opacity="1.000000" stroke="none" 
	d="
M652.355713,100.537483 
	C649.396545,89.999786 644.384460,79.769295 644.423767,69.558243 
	C644.473816,56.538143 646.877930,42.977753 655.389343,31.877153 
	C663.608398,21.157736 673.782471,13.936277 687.285461,10.240503 
	C703.446594,5.817209 718.962952,7.013609 733.378662,13.846973 
	C753.701111,23.480289 769.348816,47.072155 766.842957,73.164711 
	C765.137634,90.921471 757.790466,105.333191 744.268005,115.949173 
	C730.038391,127.120354 714.135864,132.266281 694.956482,128.591339 
	C676.333923,125.023087 662.950256,115.807686 652.355713,100.537483 
M661.964600,80.768417 
	C666.555115,99.787224 683.373108,113.094688 703.869324,113.811340 
	C730.244568,114.733543 753.801819,91.741913 750.081848,62.817677 
	C747.057556,39.301868 728.627136,23.113434 705.143005,23.239719 
	C700.072876,23.266983 695.015381,25.665886 689.288452,26.687674 
	C683.085754,22.450712 676.410522,22.778244 669.811890,25.188114 
	C650.583862,32.210285 640.970520,65.599571 661.964600,80.768417 
z"/>
<path fill="#407AB5" opacity="1.000000" stroke="none" 
	d="
M453.824982,671.931458 
	C446.051178,692.133545 437.655609,711.988708 422.505859,728.076599 
	C421.935638,728.682129 421.492889,729.520874 420.798828,729.878174 
	C416.603027,732.038147 412.351288,734.089417 408.118195,736.177002 
	C406.702637,732.105042 404.789093,728.127991 403.990265,723.938416 
	C402.841644,717.914246 402.674988,711.708069 401.703369,705.641357 
	C401.453796,704.082886 399.758362,702.756042 398.727173,701.322754 
	C398.091553,702.962097 396.795746,704.657776 396.929840,706.231506 
	C397.675629,714.983704 398.768433,723.706238 398.960571,733.134705 
	C396.311646,729.591858 393.127594,726.328064 391.109192,722.456482 
	C383.561523,707.979126 380.245148,692.229858 378.031372,676.194336 
	C376.672424,666.350952 375.182587,656.525696 373.584717,645.546021 
	C392.306549,650.170776 410.614655,650.794739 429.628754,650.262085 
	C438.104584,657.726990 445.964783,664.829224 453.824982,671.931458 
z"/>
<path fill="#292A2A" opacity="1.000000" stroke="none" 
	d="
M383.032349,326.957581 
	C373.045532,310.739746 367.670197,293.565979 372.676941,273.982605 
	C382.150635,273.676056 391.087036,276.374146 401.057129,273.874878 
	C399.246155,270.776489 398.382202,267.776001 396.391174,266.193665 
	C391.522217,262.324249 386.132294,259.110291 380.952057,255.632538 
	C386.267670,249.332367 391.494934,242.952805 397.001953,236.824646 
	C397.756897,235.984573 400.355316,235.696854 401.338562,236.332199 
	C415.643616,245.575439 428.789032,255.933823 437.332581,271.295685 
	C440.659149,277.277069 439.679626,282.387939 437.062744,287.745300 
	C428.963562,304.326141 416.870636,317.597870 402.468140,328.895752 
	C401.725861,329.478027 400.693970,329.691162 399.039642,330.011261 
	C393.199005,328.950104 388.115692,327.953857 383.032349,326.957581 
z"/>
<path fill="#407AB5" opacity="1.000000" stroke="none" 
	d="
M275.804962,648.078247 
	C274.557068,652.002563 273.640472,656.071594 272.000519,659.824585 
	C266.579590,672.230591 259.748810,683.775513 250.782684,694.039001 
	C246.201309,699.283325 241.108261,703.118042 232.572021,703.280151 
	C232.058701,697.967468 231.671722,692.463867 230.934296,687.007629 
	C230.601135,684.542664 232.518372,680.126465 228.353027,680.209656 
	C224.132782,680.294006 226.115158,684.637146 226.095291,687.099792 
	C226.058365,691.675171 226.588333,696.255188 226.891312,700.973755 
	C213.107666,694.630920 201.305084,646.398987 203.286789,625.894043 
	C218.114822,631.311279 233.461929,632.494873 249.712845,632.366333 
	C258.878082,637.801636 267.341522,642.939941 275.804962,648.078247 
z"/>
<path fill="#905B23" opacity="1.000000" stroke="none" 
	d="
M75.970749,434.005798 
	C75.992783,433.604736 76.014809,433.203705 76.380264,432.333130 
	C79.084030,429.794434 81.444374,427.725250 84.223778,425.747437 
	C88.820969,425.485870 92.999115,425.132935 97.177254,424.780029 
	C97.319359,425.191132 97.461456,425.602234 97.603561,426.013367 
	C95.531403,427.819305 93.436676,429.600159 91.393387,431.438171 
	C89.292664,433.327759 87.136047,435.172455 85.194061,437.217377 
	C82.142189,440.431030 82.307610,443.142120 86.153816,445.331085 
	C89.580437,447.281219 93.310638,448.990967 97.122910,449.924713 
	C132.042511,458.477875 165.378098,455.004639 196.408005,435.970520 
	C203.878738,431.387848 210.945679,426.146912 218.405396,421.081879 
	C218.875015,420.751770 219.071075,420.497284 219.497650,420.010925 
	C220.706558,417.708649 221.618469,415.587036 222.530396,413.465393 
	C220.249237,413.339783 217.798889,412.609406 215.715866,413.192078 
	C206.130234,415.873596 196.752716,419.342407 187.108337,421.763031 
	C150.895477,430.852142 115.024254,429.000336 79.536545,417.693146 
	C77.383232,417.007080 75.084839,416.776367 72.853958,416.333740 
	C71.709816,415.391144 70.565666,414.448578 69.247223,412.797516 
	C69.072922,409.532898 69.072922,406.976746 69.072922,404.448700 
	C70.071129,404.448700 70.484192,404.316803 70.699875,404.467499 
	C87.148460,415.957550 106.091431,417.976288 125.337753,419.037781 
	C145.889130,420.171265 165.765045,415.966827 185.493744,411.233948 
	C197.434158,408.369476 209.046112,404.143707 220.824051,400.590485 
	C226.391861,398.910767 230.755356,400.128143 233.383392,403.910431 
	C236.054749,407.755066 235.754089,413.778748 232.574982,417.904633 
	C230.749969,420.273224 228.774429,422.525787 226.586411,425.011566 
	C224.210678,427.804474 222.115189,430.416382 220.019684,433.028320 
	C220.019699,433.028320 219.999390,433.000000 219.668793,432.885010 
	C217.513824,434.145172 215.689438,435.520355 213.558762,437.036652 
	C198.249619,448.791779 181.587494,457.129425 163.374313,462.383789 
	C156.181107,464.459045 148.798950,466.800934 141.418671,464.297852 
	C124.360062,458.512329 106.578957,458.589539 88.659904,456.903015 
	C85.573303,455.434631 82.809982,454.122009 79.893845,452.510162 
	C75.128868,447.399048 73.236458,442.069031 76.466713,435.677460 
	C76.657387,435.300171 76.152168,434.571136 75.970749,434.005798 
z"/>
<path fill="#EFB97B" opacity="1.000000" stroke="none" 
	d="
M78.214401,222.464355 
	C80.563614,220.166260 82.925827,218.389847 85.055481,216.368454 
	C93.191460,208.646118 101.309410,210.784546 104.630333,221.338074 
	C108.159721,232.554062 111.417076,243.918777 115.908394,254.756393 
	C126.739326,280.891571 146.845993,295.859467 174.446228,300.918732 
	C180.281860,301.988403 186.261688,302.271423 192.606659,302.970184 
	C182.936554,309.289246 171.839279,310.186615 160.190292,310.524261 
	C143.480682,311.008667 128.806931,304.910522 116.177887,295.906555 
	C97.903503,282.877655 86.182152,264.240265 81.115486,242.020020 
	C79.682808,235.736893 79.095573,229.261002 78.214401,222.464355 
z"/>
<path fill="#FDD522" opacity="1.000000" stroke="none" 
	d="
M320.341339,323.182678 
	C318.438721,319.964111 316.893463,316.765198 315.400299,312.936249 
	C315.368164,310.474121 315.658112,308.528168 315.140625,306.827942 
	C310.928314,292.987946 310.858887,279.086243 314.535461,265.143799 
	C332.258820,267.832855 349.600677,270.465454 366.942505,273.098053 
	C362.785614,291.682556 366.973236,308.853943 375.347717,325.597504 
	C358.545929,325.141724 342.291809,326.268860 326.140686,329.028656 
	C324.326691,327.086548 322.512695,325.144440 320.341339,323.182678 
z"/>
<path fill="#FBD322" opacity="1.000000" stroke="none" 
	d="
M751.438843,409.942993 
	C751.161621,408.226410 751.170227,406.330780 751.233765,404.049561 
	C752.338318,402.448334 754.304565,401.231079 754.302429,400.017242 
	C754.259033,374.850311 748.253784,351.528656 731.029175,332.406525 
	C725.810974,326.613342 718.955017,322.295410 712.333984,316.880432 
	C713.427612,311.535461 714.780945,304.921387 716.280884,297.590759 
	C725.648376,306.115051 734.862244,314.098969 748.409546,314.648071 
	C747.920898,320.156616 746.687012,325.170563 746.319336,330.247253 
	C746.128052,332.887817 747.465698,335.639099 748.112732,338.340332 
	C750.697510,336.626740 753.457153,335.116882 755.792419,333.112518 
	C756.939392,332.128052 757.372559,330.257141 758.001892,328.734894 
	C759.769592,324.459351 761.471436,320.156494 763.199219,315.864380 
	C772.017273,314.365417 780.835388,312.866455 790.221863,311.270874 
	C789.854919,313.384430 789.633606,315.786621 789.008362,318.078644 
	C784.729248,333.764832 781.442627,349.837097 775.693420,364.970947 
	C770.955200,377.443542 763.280457,388.802643 756.877930,400.639435 
	C755.216309,403.711304 753.445374,406.724060 751.438843,409.942993 
z"/>
<path fill="#3F7AB5" opacity="1.000000" stroke="none" 
	d="
M664.723938,635.194641 
	C661.756958,650.508545 659.605042,666.060425 651.869202,679.999207 
	C650.579407,682.323120 649.214417,684.631592 647.636047,686.763550 
	C644.687683,690.746094 640.992310,693.376709 635.672668,692.076660 
	C630.567383,690.829041 630.796692,686.337952 630.115784,682.521912 
	C629.180969,677.282715 628.644348,671.964233 627.502563,666.775330 
	C627.187256,665.342346 625.328186,664.249084 624.177490,662.999878 
	C623.622437,664.514893 622.456543,666.099304 622.619385,667.532776 
	C623.275818,673.311218 624.506470,679.024475 625.161499,684.803040 
	C625.368530,686.628906 625.000488,689.694824 623.913696,690.241638 
	C621.814575,691.298035 618.774292,691.711731 616.578247,690.996826 
	C614.445435,690.302551 612.305908,688.175476 611.181091,686.123047 
	C608.329590,680.919678 605.411743,675.600342 603.679382,669.970825 
	C600.948181,661.095276 599.166443,651.927673 597.377625,642.432983 
	C611.197388,635.554626 625.011414,630.577820 640.227478,632.001770 
	C648.420837,632.768555 656.560181,634.111633 664.723938,635.194641 
z"/>
<path fill="#181F16" opacity="1.000000" stroke="none" 
	d="
M226.866638,424.830566 
	C228.774429,422.525787 230.749969,420.273224 232.574982,417.904633 
	C235.754089,413.778748 236.054749,407.755066 233.383392,403.910431 
	C230.755356,400.128143 226.391861,398.910767 220.824051,400.590485 
	C209.046112,404.143707 197.434158,408.369476 185.493744,411.233948 
	C165.765045,415.966827 145.889130,420.171265 125.337753,419.037781 
	C106.091431,417.976288 87.148460,415.957550 70.699875,404.467499 
	C70.484192,404.316803 70.071129,404.448700 69.072922,404.448700 
	C69.072922,406.976746 69.072922,409.532898 69.070419,412.530090 
	C68.220070,412.531281 67.372223,412.091431 66.071198,411.416443 
	C64.514542,407.076416 67.909027,403.557281 70.282394,399.126892 
	C74.200508,393.767090 77.772621,388.917450 81.194885,384.271240 
	C77.781815,381.195648 74.865021,378.567230 72.264244,376.153839 
	C74.295837,376.915375 76.028214,377.978455 77.724236,377.923309 
	C87.561264,377.603485 97.404274,377.205017 107.213600,376.431488 
	C110.907730,376.140167 114.517067,374.773438 118.165054,373.896973 
	C118.281502,374.301910 118.397957,374.706848 118.514404,375.111786 
	C109.802376,377.603180 101.090347,380.094604 91.149445,382.937439 
	C100.177162,387.376404 107.801712,387.144226 113.654373,382.567596 
	C117.951393,379.207489 121.961021,375.452820 125.869347,371.638885 
	C127.065498,370.471649 127.502037,368.525970 128.286438,366.936768 
	C126.643448,367.185242 124.878372,367.128479 123.376328,367.729279 
	C107.960953,373.895386 92.284950,377.773193 75.532600,374.162170 
	C74.541641,373.948547 73.198006,375.371094 71.718224,376.015442 
	C70.652069,375.398895 69.886177,374.799133 69.120293,374.199371 
	C68.438484,371.503082 68.337440,368.461365 66.974564,366.170197 
	C60.997982,356.122711 64.968918,346.776184 69.072067,337.304199 
	C72.764320,336.524414 75.795509,335.696747 78.857994,335.008301 
	C94.713066,331.444214 110.347275,332.335785 125.786278,337.348755 
	C128.009430,338.070587 130.327362,338.500488 132.601425,339.065521 
	C132.802124,338.483429 133.002808,337.901367 133.203506,337.319305 
	C131.915817,336.471069 130.712479,335.439117 129.327316,334.803284 
	C116.559631,328.942749 103.139648,327.335999 89.265686,328.828278 
	C85.500015,329.233307 81.733894,329.634094 77.963425,329.671265 
	C91.309830,323.202423 104.660797,317.099182 118.060303,311.248932 
	C118.150993,311.668396 118.193130,311.834900 118.176460,312.374695 
	C119.424530,313.507812 120.686714,314.361969 122.048157,315.006470 
	C124.420143,316.129395 126.819023,317.213409 129.270920,318.144379 
	C131.511353,318.994995 133.836868,319.621490 136.124893,320.346771 
	C123.260239,319.789246 110.582855,318.719757 96.823372,322.674927 
	C98.818901,323.962006 99.515617,324.694366 100.343994,324.902344 
	C109.755829,327.265228 119.172882,329.613129 128.631790,331.775848 
	C129.926178,332.071838 131.627243,331.667328 132.849380,331.029907 
	C142.318436,326.090912 151.716064,321.014984 161.135803,315.981476 
	C166.589951,314.684845 172.044113,313.388184 177.888519,312.112305 
	C185.789368,313.078796 193.286545,314.153320 200.813980,314.937195 
	C209.930405,315.886475 217.805450,319.419830 224.539902,325.928986 
	C206.731369,314.193390 187.066452,316.732666 167.644760,318.318237 
	C162.461258,318.741394 157.417953,320.881714 152.362183,323.088715 
	C172.489838,325.075897 192.761154,325.407501 210.043350,337.868988 
	C206.096024,336.482941 202.117676,335.178711 198.206711,333.696716 
	C181.017960,327.183350 163.408279,324.443054 145.200333,328.148804 
	C142.230347,328.753265 139.537003,330.716919 136.715775,332.052338 
	C136.894806,332.472351 137.073822,332.892365 137.252838,333.312408 
	C141.684219,333.002319 146.115616,332.692261 150.497055,332.869080 
	C148.866959,333.870300 147.254242,334.302307 145.711960,334.912445 
	C136.090225,338.718811 129.986115,348.153809 130.743362,357.975494 
	C131.430313,366.885376 137.114914,373.819702 147.203445,375.457428 
	C167.215790,378.706085 185.484741,374.986115 200.454147,359.945892 
	C203.991150,356.392151 208.589905,353.906097 212.621185,350.825470 
	C213.576782,350.095215 214.213562,348.947754 214.997009,347.992249 
	C213.908417,347.245178 212.917999,346.190704 211.713654,345.806030 
	C207.304489,344.397766 202.498779,343.858521 198.436218,341.812775 
	C189.095261,337.109070 179.296432,334.327240 169.015305,332.651184 
	C169.002884,332.411499 168.995850,331.931488 168.995850,331.931488 
	C179.697678,330.976898 189.018784,335.704834 198.680313,339.086761 
	C203.819504,340.885773 209.119339,342.248322 214.185379,344.221863 
	C215.994186,344.926514 217.327957,346.850555 218.878555,348.217987 
	C217.389267,349.807526 216.071976,351.616394 214.377930,352.944824 
	C209.595215,356.695435 204.118103,359.713074 199.882431,363.980194 
	C187.028976,376.929230 171.148788,379.535522 154.039459,378.513214 
	C150.086548,378.277008 146.172623,377.435364 142.221710,377.090363 
	C141.030197,376.986359 138.338470,376.018890 139.746811,379.739990 
	C139.741928,380.227905 139.437073,380.596222 139.437073,380.596222 
	C137.190231,378.051270 134.943390,375.506348 132.259872,372.466827 
	C121.209450,378.376404 114.247864,389.225830 105.134483,398.024170 
	C105.663673,396.907196 106.726395,395.720917 106.592552,394.690002 
	C106.408173,393.269806 105.496811,390.933960 104.590324,390.778534 
	C97.776054,389.610382 90.635582,387.434692 84.115654,388.565033 
	C80.281296,389.229797 76.563927,394.927185 74.329773,399.169800 
	C72.320274,402.985748 76.292442,405.790588 79.501060,406.909302 
	C88.171379,409.932220 96.903046,413.126251 105.879379,414.858429 
	C131.646545,419.830780 157.022705,416.445953 182.020416,409.528229 
	C195.227570,405.873383 208.323730,401.811371 221.433945,397.814880 
	C227.055237,396.101288 230.282333,396.883667 234.468628,401.964722 
	C237.683258,405.866394 239.717285,410.417969 236.830444,415.193176 
	C234.546936,418.970428 231.330597,422.183746 228.003754,425.669403 
	C227.274872,425.404388 227.070755,425.117493 226.866638,424.830566 
M93.838776,335.164612 
	C91.356697,335.446533 88.864075,335.657074 86.394264,336.022003 
	C70.843712,338.319580 65.599380,344.506226 67.105560,358.714020 
	C67.932014,366.509918 71.783218,371.187134 79.578568,371.963379 
	C92.603180,373.260315 105.554398,372.434875 117.879807,367.451324 
	C123.399948,365.219360 127.624542,361.797058 127.531746,354.951630 
	C127.496155,352.327301 128.112747,349.660004 128.688538,347.069275 
	C129.653671,342.726654 128.380768,339.606476 123.823479,338.926849 
	C114.164917,337.486511 104.457146,336.376190 93.838776,335.164612 
z"/>
<path fill="#F8F6F3" opacity="1.000000" stroke="none" 
	d="
M367.189880,272.833496 
	C349.600677,270.465454 332.258820,267.832855 314.459534,264.784119 
	C312.148621,260.003906 310.068542,262.835938 308.035309,264.180145 
	C298.428131,261.186707 288.743774,258.411041 279.266388,255.051529 
	C276.800903,254.177551 274.981506,251.480972 272.865326,249.621552 
	C274.882996,247.439270 276.516602,244.409561 279.010956,243.279129 
	C282.498871,241.698410 286.605743,241.044144 290.488525,240.862167 
	C299.569702,240.436554 308.675140,240.528244 318.198059,240.270905 
	C319.899170,243.103622 321.446991,244.966278 324.992401,241.350250 
	C342.980804,242.687134 359.620453,246.920563 375.734283,253.319626 
	C375.963440,256.463318 377.248901,257.744476 380.626770,255.771149 
	C386.132294,259.110291 391.522217,262.324249 396.391174,266.193665 
	C398.382202,267.776001 399.246155,270.776489 401.057129,273.874878 
	C391.087036,276.374146 382.150635,273.676056 372.791321,273.541901 
	C371.249115,270.273041 369.647461,269.764496 367.189880,272.833496 
z"/>
<path fill="#F8F6F2" opacity="1.000000" stroke="none" 
	d="
M763.009949,315.560242 
	C761.471436,320.156494 759.769592,324.459351 758.001892,328.734894 
	C757.372559,330.257141 756.939392,332.128052 755.792419,333.112518 
	C753.457153,335.116882 750.697510,336.626740 748.112732,338.340332 
	C747.465698,335.639099 746.128052,332.887817 746.319336,330.247253 
	C746.687012,325.170563 747.920898,320.156616 748.825562,314.749268 
	C751.905823,313.606506 753.480530,312.328888 750.367432,308.871277 
	C753.891541,287.868042 757.563904,267.499359 761.236267,247.130692 
	C765.210083,245.555649 764.731934,243.814499 761.196045,241.336166 
	C759.449707,222.265762 757.936218,203.827148 756.422729,185.388535 
	C759.190979,184.102402 759.692688,182.482742 756.874756,179.865967 
	C758.184204,174.587479 760.321472,174.017792 763.742615,177.450760 
	C764.531250,178.242081 765.195374,179.157440 765.916809,180.015717 
	C764.937866,182.066025 762.550903,184.454010 767.579773,185.638245 
	C774.184814,204.491913 775.168701,223.518311 775.032532,242.683792 
	C772.570374,244.027191 771.268372,245.528580 774.680237,248.265350 
	C773.720276,269.911865 770.356323,290.577850 764.783936,310.879761 
	C762.303345,311.519318 760.730896,312.566254 763.009949,315.560242 
z"/>
<path fill="#084986" opacity="1.000000" stroke="none" 
	d="
M664.824768,634.755859 
	C656.560181,634.111633 648.420837,632.768555 640.227478,632.001770 
	C625.011414,630.577820 611.197388,635.554626 597.411133,642.029358 
	C595.465881,636.183655 593.782837,630.313721 592.414062,624.371521 
	C592.226929,623.559204 593.397705,622.117249 594.293213,621.422119 
	C602.418274,615.114502 610.485596,608.714233 618.895569,602.804565 
	C621.077698,601.271118 624.371399,601.107483 627.209167,600.755432 
	C639.660828,599.210632 652.132446,597.827698 664.925598,596.348022 
	C664.925598,608.527527 664.925598,621.422302 664.824768,634.755859 
z"/>
<path fill="#292A2A" opacity="1.000000" stroke="none" 
	d="
M58.973717,241.151917 
	C62.994503,233.816925 67.015289,226.481949 71.036079,219.146957 
	C71.573944,219.329208 72.111809,219.511459 72.649681,219.693726 
	C73.224144,224.659500 73.699402,229.639191 74.392479,234.588364 
	C76.168648,247.271881 80.809929,258.975494 87.093788,270.028320 
	C89.035973,273.444519 88.881126,276.191895 87.261604,279.775635 
	C82.889351,289.450714 79.101639,299.389893 74.553108,309.604370 
	C68.010521,309.997040 61.996822,310.009644 55.983120,310.022278 
	C48.132896,295.834229 46.032360,280.813904 49.495029,264.999359 
	C49.883579,263.224792 50.407230,261.479797 51.142609,259.062927 
	C55.628548,255.595810 60.007652,253.002533 63.995129,249.905106 
	C66.844048,247.692108 66.237740,244.520050 63.018604,242.784195 
	C61.746731,242.098373 60.326431,241.687820 58.973717,241.151917 
z"/>
<path fill="#2A2B2B" opacity="1.000000" stroke="none" 
	d="
M760.825439,247.087311 
	C757.563904,267.499359 753.891541,287.868042 750.117493,308.616333 
	C740.624329,309.453400 733.112366,305.138336 726.119385,299.545441 
	C724.955811,298.614838 723.978577,297.450165 722.808411,296.529327 
	C716.609985,291.651703 714.781921,285.228149 718.369873,278.375793 
	C724.772217,266.148499 730.543762,253.725891 733.014038,240.019165 
	C733.746765,235.953430 736.170532,236.761841 738.437805,238.345398 
	C745.093567,242.994095 752.584900,245.420425 760.825439,247.087311 
z"/>
<path fill="#292A2A" opacity="1.000000" stroke="none" 
	d="
M766.363281,180.028107 
	C765.195374,179.157440 764.531250,178.242081 763.742615,177.450760 
	C760.321472,174.017792 758.184204,174.587479 756.574341,179.704681 
	C750.757751,178.695435 744.904236,177.487457 739.208801,175.758804 
	C737.881836,175.356033 736.416077,173.298904 736.161377,171.807144 
	C734.016663,159.242844 732.040955,146.646423 730.312683,134.018829 
	C730.111877,132.551422 731.298523,130.169586 732.573547,129.350616 
	C737.989380,125.871788 743.681030,122.822258 749.809631,119.307549 
	C763.506653,136.666946 772.052124,156.949326 779.354675,178.698547 
	C774.647156,179.202133 770.728455,179.621338 766.363281,180.028107 
z"/>
<path fill="#084987" opacity="1.000000" stroke="none" 
	d="
M233.378647,463.025391 
	C236.872330,455.731720 240.886963,448.497253 244.511536,441.072388 
	C251.841431,426.057404 259.473907,411.157898 266.010132,395.797394 
	C271.722687,382.372559 276.103424,368.381012 281.127869,354.245117 
	C286.629852,360.826416 292.855713,366.495850 304.072937,365.755524 
	C298.100555,377.616394 293.219513,388.479218 287.327759,398.763000 
	C275.716461,419.029999 260.983337,436.999664 244.725891,453.704407 
	C241.393417,457.128571 237.407730,459.916992 233.378647,463.025391 
z"/>
<path fill="#3F79B3" opacity="1.000000" stroke="none" 
	d="
M118.011765,310.995941 
	C104.660797,317.099182 91.309830,323.202423 77.980247,329.656219 
	C78.001633,330.006775 78.040260,329.983429 77.705734,329.809326 
	C76.625389,329.683350 75.879570,329.731506 75.133759,329.779663 
	C79.883911,315.337341 84.591064,300.880585 89.428429,286.467529 
	C90.194847,284.183990 91.548370,282.097473 92.659256,279.861908 
	C97.564125,284.974274 101.784203,290.114594 106.769646,294.355164 
	C111.509674,298.387054 116.899521,301.730225 122.268700,304.931763 
	C134.048370,311.955719 146.711166,316.029480 160.883179,315.628296 
	C151.716064,321.014984 142.318436,326.090912 132.849380,331.029907 
	C131.627243,331.667328 129.926178,332.071838 128.631790,331.775848 
	C119.172882,329.613129 109.755829,327.265228 100.343994,324.902344 
	C99.515617,324.694366 98.818901,323.962006 96.823372,322.674927 
	C110.582855,318.719757 123.260239,319.789246 136.124893,320.346771 
	C133.836868,319.621490 131.511353,318.994995 129.270920,318.144379 
	C126.819023,317.213409 124.420143,316.129395 122.048157,315.006470 
	C120.686714,314.361969 119.424530,313.507812 118.469070,312.369049 
	C119.406158,311.736938 119.991821,311.483826 120.577492,311.230682 
	C120.512527,311.067017 120.447571,310.903381 120.382614,310.739716 
	C119.592331,310.825134 118.802040,310.910522 118.011765,310.995941 
M123.197701,308.063416 
	C123.343468,308.399567 123.489235,308.735687 123.634995,309.071838 
	C123.604187,308.655518 123.573380,308.239227 123.197701,308.063416 
z"/>
<path fill="#FCD423" opacity="1.000000" stroke="none" 
	d="
M375.989441,253.057434 
	C359.620453,246.920563 342.980804,242.687134 325.258667,241.111725 
	C330.096741,229.817825 338.915131,221.458939 347.690613,213.104874 
	C348.466431,212.366348 350.544739,212.261642 351.659607,212.725021 
	C365.970612,218.672897 380.216309,224.777908 394.419403,230.817947 
	C387.782440,238.843506 382.013519,245.819382 375.989441,253.057434 
z"/>
<path fill="#2A2B2B" opacity="1.000000" stroke="none" 
	d="
M765.215027,310.898712 
	C770.356323,290.577850 773.720276,269.911865 775.010132,248.446838 
	C779.558411,247.096603 784.113342,246.272293 788.631897,245.282013 
	C791.494629,244.654617 793.086670,245.184799 793.007935,248.562561 
	C792.603455,265.906525 792.312439,283.253143 791.919495,300.597382 
	C791.853882,303.495148 790.682617,305.641846 787.454346,306.291534 
	C780.169617,307.757538 772.913757,309.366730 765.215027,310.898712 
z"/>
<path fill="#1F1B15" opacity="1.000000" stroke="none" 
	d="
M72.860214,416.386902 
	C75.084839,416.776367 77.383232,417.007080 79.536545,417.693146 
	C115.024254,429.000336 150.895477,430.852142 187.108337,421.763031 
	C196.752716,419.342407 206.130234,415.873596 215.715866,413.192078 
	C217.798889,412.609406 220.249237,413.339783 222.530396,413.465393 
	C221.618469,415.587036 220.706558,417.708649 219.282532,419.819763 
	C218.626312,419.682617 218.482178,419.555969 218.520462,419.127869 
	C217.688980,418.016907 216.601303,416.451538 215.675293,416.541931 
	C213.058670,416.797424 210.466888,417.603424 207.938354,418.418915 
	C185.144180,425.770203 161.921432,430.416748 137.836105,430.176971 
	C134.069962,430.139465 130.131409,430.807709 126.580147,432.037659 
	C124.451614,432.774841 121.530304,435.176178 121.455444,436.935547 
	C121.350990,439.390259 122.937607,442.776459 124.923767,444.294769 
	C130.256653,448.371582 136.490021,448.090515 142.513962,445.617157 
	C151.596725,441.887909 160.505585,437.720917 169.662003,434.190338 
	C175.358063,431.993988 181.349731,429.745667 187.582291,432.200195 
	C191.819870,433.869049 195.691925,433.567719 199.493698,431.234070 
	C205.451828,427.576843 211.400543,423.904327 217.563858,420.481506 
	C217.915741,420.885986 218.057037,421.047333 218.198318,421.208710 
	C210.945679,426.146912 203.878738,431.387848 196.408005,435.970520 
	C165.378098,455.004639 132.042511,458.477875 97.122910,449.924713 
	C93.310638,448.990967 89.580437,447.281219 86.153816,445.331085 
	C82.307610,443.142120 82.142189,440.431030 85.194061,437.217377 
	C87.136047,435.172455 89.292664,433.327759 91.393387,431.438171 
	C93.436676,429.600159 95.531403,427.819305 97.603561,426.013367 
	C97.461456,425.602234 97.319359,425.191132 97.177254,424.780029 
	C92.999115,425.132935 88.820969,425.485870 84.291809,425.393005 
	C83.047157,423.598816 82.438744,421.830566 81.200516,420.989319 
	C78.623772,419.238708 75.713547,417.978943 72.940369,416.517487 
	C72.940361,416.517487 72.866470,416.440033 72.860214,416.386902 
M119.583649,452.118835 
	C121.647598,452.118835 123.711540,452.118835 126.148094,452.118835 
	C122.752914,448.531372 119.542061,445.696411 117.019203,442.343719 
	C113.114960,437.155365 120.352371,434.881012 120.606155,430.696655 
	C109.830879,424.488281 95.107254,427.977448 88.639267,438.264160 
	C86.546738,441.592133 87.486069,444.161865 91.194725,445.148315 
	C100.322006,447.576019 109.518044,449.745178 119.583649,452.118835 
M153.370575,445.901184 
	C151.844360,446.894714 150.318146,447.888245 148.791931,448.881805 
	C149.008606,449.263153 149.225266,449.644531 149.441925,450.025909 
	C162.852249,448.634705 175.361435,444.498322 187.029480,437.324280 
	C183.042831,436.387634 178.905487,435.448547 175.447464,436.582001 
	C168.113739,438.985748 161.133957,442.469391 153.370575,445.901184 
z"/>
<path fill="#141313" opacity="1.000000" stroke="none" 
	d="
M280.985046,344.475861 
	C290.528320,340.624634 300.115753,337.034485 309.767426,333.626129 
	C312.867859,332.531250 316.137817,331.916351 319.736633,331.038940 
	C322.725189,334.127411 325.214630,337.341156 327.909210,340.372559 
	C333.053650,346.160004 338.314972,351.843536 344.059357,358.154205 
	C340.804291,358.844666 338.157410,359.649567 335.455841,359.932739 
	C327.904907,360.724304 320.320374,361.910889 312.770050,361.775299 
	C306.248596,361.658173 298.981781,361.407928 293.476288,358.502991 
	C288.353149,355.799683 285.119598,349.515289 280.985046,344.475861 
z"/>
<path fill="#FBD423" opacity="1.000000" stroke="none" 
	d="
M755.970398,185.292328 
	C757.936218,203.827148 759.449707,222.265762 760.917114,241.179749 
	C752.103455,240.413071 744.528198,236.295959 737.215454,231.650406 
	C736.210449,231.011932 735.163147,229.399857 735.217102,228.291122 
	C735.975220,212.694702 736.921021,197.107407 737.820496,181.530960 
	C743.325562,182.671051 749.421814,183.933594 755.970398,185.292328 
z"/>
<path fill="#D47507" opacity="1.000000" stroke="none" 
	d="
M326.220764,329.348572 
	C342.291809,326.268860 358.545929,325.141724 375.380066,325.941223 
	C379.278870,330.394867 382.719849,334.858002 386.490997,339.749420 
	C375.500031,346.541321 364.367279,352.276367 352.184357,355.693817 
	C350.763336,356.092438 348.248779,354.962891 347.143463,353.731750 
	C340.055542,345.836700 333.219604,337.715424 326.220764,329.348572 
z"/>
<path fill="#EEB97A" opacity="1.000000" stroke="none" 
	d="
M72.928558,508.453735 
	C75.504021,508.885895 78.341148,509.277527 80.782776,510.475311 
	C89.499130,514.751404 99.180244,515.810974 108.271942,515.495056 
	C116.988922,515.192200 125.549767,510.890137 134.226364,508.518036 
	C135.983612,508.037628 137.951675,508.328400 139.905624,508.610565 
	C138.995682,511.145844 137.430771,513.254395 137.112045,515.536865 
	C135.945984,523.886902 135.195007,532.294861 134.311295,540.463074 
	C110.831802,536.357605 88.462402,529.241089 72.928558,508.453735 
z"/>
<path fill="#084987" opacity="1.000000" stroke="none" 
	d="
M464.991638,652.886780 
	C465.799194,649.682800 466.433167,646.419373 467.500366,643.304321 
	C467.923309,642.069885 469.121979,640.561401 470.283966,640.202515 
	C483.519348,636.114868 494.628174,628.275452 505.902222,620.640503 
	C507.415436,619.615662 510.144745,619.634949 512.065369,620.127869 
	C515.501160,621.009460 516.581299,623.289551 515.008240,626.909241 
	C510.731537,636.749939 506.707977,646.700623 501.929291,656.768616 
	C489.535919,652.389771 477.253082,652.734314 464.991638,652.886780 
z"/>
<path fill="#FAD322" opacity="1.000000" stroke="none" 
	d="
M44.738297,261.471069 
	C40.886360,278.319305 43.044308,294.524078 49.565510,310.630127 
	C43.112629,312.719543 37.051746,314.398621 30.990868,316.077698 
	C28.665215,308.740021 25.474606,301.543671 24.246044,294.026703 
	C22.893764,285.752777 23.345270,277.184052 23.455408,268.290955 
	C30.846008,265.715820 37.792156,263.593445 44.738297,261.471069 
z"/>
<path fill="#EEB97A" opacity="1.000000" stroke="none" 
	d="
M229.380066,221.347931 
	C241.893646,221.323425 251.589279,227.077011 259.238861,236.730331 
	C260.359314,238.144241 261.514648,239.530518 262.967407,241.111740 
	C260.545685,251.980865 257.810394,262.667847 255.055725,273.430481 
	C253.971527,272.238251 252.408905,270.267181 250.581253,268.583893 
	C248.880249,267.017303 247.085938,265.026154 245.005341,264.488342 
	C235.877060,262.128693 235.643768,255.671249 235.814819,247.934937 
	C236.016830,238.796936 234.600723,229.688370 229.380066,221.347931 
z"/>
<path fill="#3F79B3" opacity="1.000000" stroke="none" 
	d="
M464.759155,653.185669 
	C477.253082,652.734314 489.535919,652.389771 501.658417,656.979614 
	C496.821930,667.760925 489.942719,677.028687 478.456390,683.913757 
	C477.579529,679.147339 477.022400,675.159485 476.040497,671.279114 
	C475.675171,669.835327 474.315735,668.643066 473.409607,667.336182 
	C472.670197,668.907166 471.337097,670.470703 471.317474,672.050598 
	C471.278992,675.150757 471.971710,678.260132 472.359131,681.343872 
	C464.510651,682.748901 458.111572,676.247559 460.075439,669.291931 
	C461.562836,664.023865 463.043152,658.753784 464.759155,653.185669 
z"/>
<path fill="#FAD323" opacity="1.000000" stroke="none" 
	d="
M775.426514,242.714981 
	C775.168701,223.518311 774.184814,204.491913 767.978638,185.745911 
	C772.161926,184.767319 776.374023,184.153168 781.920776,183.344437 
	C785.518250,201.705597 789.131042,220.144867 792.851013,239.131378 
	C786.451355,240.489731 781.135925,241.617950 775.426514,242.714981 
z"/>
<path fill="#F7F5F0" opacity="1.000000" stroke="none" 
	d="
M44.867638,261.140198 
	C37.792156,263.593445 30.846008,265.715820 23.520615,267.860901 
	C21.296959,264.688873 19.604916,265.107056 17.547131,268.518005 
	C14.962083,268.523193 12.851337,268.109955 10.740591,267.696747 
	C11.630373,265.361298 11.954948,262.489288 13.542887,260.816650 
	C15.902831,258.330780 19.156351,256.693237 22.029558,254.694626 
	C23.420565,253.285446 24.811571,251.876266 26.791046,250.144775 
	C35.836445,247.189804 44.293377,244.557144 52.750305,241.924469 
	C54.823547,244.896439 56.595013,243.428116 58.655991,241.348312 
	C60.326431,241.687820 61.746731,242.098373 63.018604,242.784195 
	C66.237740,244.520050 66.844048,247.692108 63.995129,249.905106 
	C60.007652,253.002533 55.628548,255.595810 51.204071,258.673431 
	C48.149612,256.856720 45.908169,256.697815 44.867638,261.140198 
z"/>
<path fill="#EDB97A" opacity="1.000000" stroke="none" 
	d="
M174.434067,214.863998 
	C177.963623,219.791519 182.033981,224.551590 184.249954,230.057938 
	C187.711655,238.659637 185.433472,246.865646 179.625824,254.053192 
	C178.384232,255.589783 177.196915,257.170227 175.797974,259.049622 
	C161.930923,248.196320 161.258224,227.875992 174.434067,214.863998 
z"/>
<path fill="#F8D123" opacity="1.000000" stroke="none" 
	d="
M52.856316,241.576752 
	C44.293377,244.557144 35.836445,247.189804 27.008095,249.887711 
	C29.385906,240.407425 33.904190,232.291428 43.319725,227.605606 
	C51.072968,223.747070 58.600521,219.435028 66.713120,216.325653 
	C62.129520,224.626785 57.545921,232.927902 52.856316,241.576752 
z"/>
<path fill="#D07307" opacity="1.000000" stroke="none" 
	d="
M31.117222,316.381042 
	C37.051746,314.398621 43.112629,312.719543 49.575729,311.002747 
	C54.959518,318.910126 59.941093,326.855286 64.986107,334.901611 
	C61.444477,338.857819 57.458076,339.152618 53.069824,335.341187 
	C45.844028,329.065125 38.523937,322.897644 31.117222,316.381042 
z"/>
<path fill="#084985" opacity="1.000000" stroke="none" 
	d="
M453.943298,671.569214 
	C445.964783,664.829224 438.104584,657.726990 430.090637,650.321167 
	C440.141663,648.106934 450.346375,646.196350 461.755646,644.060181 
	C459.075287,653.517212 456.568481,662.362061 453.943298,671.569214 
z"/>
<path fill="#2A2B2B" opacity="1.000000" stroke="none" 
	d="
M21.882874,254.363083 
	C19.156351,256.693237 15.902831,258.330780 13.542887,260.816650 
	C11.954948,262.489288 11.630373,265.361298 10.740591,267.696747 
	C12.851337,268.109955 14.962083,268.523193 17.483059,268.870087 
	C18.305798,279.176941 18.718307,289.550110 19.111244,299.431122 
	C14.203205,295.717804 5.925582,277.051300 6.162530,268.125214 
	C6.467253,256.645966 15.114244,250.267319 22.651508,243.036423 
	C23.000484,243.000229 23.017693,243.014297 23.017693,243.014297 
	C22.590525,246.686707 22.163355,250.359131 21.882874,254.363083 
z"/>
<path fill="#084985" opacity="1.000000" stroke="none" 
	d="
M276.089661,647.825623 
	C267.341522,642.939941 258.878082,637.801636 250.173691,632.426636 
	C260.162933,630.386047 270.393127,628.582153 281.831818,626.565125 
	C279.994812,633.636536 278.184570,640.604736 276.089661,647.825623 
z"/>
<path fill="#407AB3" opacity="1.000000" stroke="none" 
	d="
M77.984802,330.021820 
	C81.733894,329.634094 85.500015,329.233307 89.265686,328.828278 
	C103.139648,327.335999 116.559631,328.942749 129.327316,334.803284 
	C130.712479,335.439117 131.915817,336.471069 133.203506,337.319305 
	C133.002808,337.901367 132.802124,338.483429 132.601425,339.065521 
	C130.327362,338.500488 128.009430,338.070587 125.786278,337.348755 
	C110.347275,332.335785 94.713066,331.444214 78.857994,335.008301 
	C75.795509,335.696747 72.764320,336.524414 69.396179,337.129242 
	C70.174461,335.670044 71.275269,334.369446 72.918610,332.913147 
	C73.768509,332.595978 73.960365,332.345856 74.036720,332.007141 
	C74.036720,332.007141 74.492302,331.911621 75.022644,331.783783 
	C76.382080,331.098450 77.211174,330.540955 78.040268,329.983429 
	C78.040260,329.983429 78.001633,330.006775 77.984802,330.021820 
z"/>
<path fill="#141313" opacity="1.000000" stroke="none" 
	d="
M56.030807,310.378296 
	C61.996822,310.009644 68.010521,309.997040 74.486969,309.966187 
	C73.286736,316.669189 71.623764,323.390472 69.713333,331.111938 
	C63.728710,324.605957 59.080326,318.250336 56.030807,310.378296 
z"/>
<path fill="#3D74AB" opacity="1.000000" stroke="none" 
	d="
M71.948227,375.938843 
	C74.865021,378.567230 77.781815,381.195648 81.194885,384.271240 
	C77.772621,388.917450 74.200508,393.767090 70.337769,398.765381 
	C69.701157,390.977295 69.355171,383.040619 69.064743,374.651672 
	C69.886177,374.799133 70.652069,375.398895 71.695946,375.995636 
	C71.973930,375.992615 71.948235,375.938843 71.948227,375.938843 
z"/>
<path fill="#3F77AF" opacity="1.000000" stroke="none" 
	d="
M72.841812,416.975281 
	C75.713547,417.978943 78.623772,419.238708 81.200516,420.989319 
	C82.438744,421.830566 83.047157,423.598816 83.872757,425.301697 
	C81.444374,427.725250 79.084030,429.794434 76.434708,432.036407 
	C75.011581,427.283844 73.877419,422.358459 72.841812,416.975281 
z"/>
<path fill="#141313" opacity="1.000000" stroke="none" 
	d="
M383.169586,327.266449 
	C388.115692,327.953857 393.199005,328.950104 398.678772,330.036011 
	C396.518829,332.514618 393.962463,334.903534 391.107788,337.571228 
	C388.144958,333.774750 385.725891,330.675049 383.169586,327.266449 
z"/>
<path fill="#1C1F13" opacity="1.000000" stroke="none" 
	d="
M75.721329,434.195007 
	C76.152168,434.571136 76.657387,435.300171 76.466713,435.677460 
	C73.236458,442.069031 75.128868,447.399048 79.877785,452.914795 
	C79.973221,454.155029 79.931915,454.691437 79.890610,455.227844 
	C78.115295,453.280914 76.337868,451.335907 74.565178,449.386597 
	C71.418541,445.926544 71.292953,442.011230 72.869606,437.446228 
	C73.760757,436.158447 74.616325,435.271332 75.721329,434.195007 
z"/>
<path fill="#181F16" opacity="1.000000" stroke="none" 
	d="
M77.705734,329.809326 
	C77.211174,330.540955 76.382080,331.098450 75.236649,331.692261 
	C74.953590,331.293854 74.986893,330.859100 75.076973,330.101990 
	C75.879570,329.731506 76.625389,329.683350 77.705734,329.809326 
z"/>
<path fill="#EEB97A" opacity="1.000000" stroke="none" 
	d="
M71.880203,507.321045 
	C72.141182,507.221619 72.470009,507.407501 72.849892,507.881531 
	C72.583313,507.981903 72.265686,507.794159 71.880203,507.321045 
z"/>
<path fill="#2A2B2B" opacity="1.000000" stroke="none" 
	d="
M22.993519,242.991776 
	C23.094604,242.959534 23.202656,242.935745 23.164200,242.963135 
	C23.017693,243.014297 23.000484,243.000229 22.993519,242.991776 
z"/>
<path fill="#084987" opacity="1.000000" stroke="none" 
	d="
M232.290253,464.069916 
	C232.192230,463.843872 232.355164,463.519135 232.784531,463.109253 
	C232.884384,463.339844 232.717789,463.655518 232.290253,464.069916 
z"/>
<path fill="#181F16" opacity="1.000000" stroke="none" 
	d="
M73.818863,332.063049 
	C73.960365,332.345856 73.768509,332.595978 73.218498,332.752991 
	C73.114586,332.469482 73.322975,332.259644 73.818863,332.063049 
z"/>
<path fill="#090A0A" opacity="1.000000" stroke="none" 
	d="
M79.942398,455.570435 
	C79.931915,454.691437 79.973221,454.155029 80.030594,453.213989 
	C82.809982,454.122009 85.573303,455.434631 88.665764,457.240326 
	C89.010323,458.183563 89.025742,458.633789 89.041168,459.083984 
	C92.738144,470.196686 100.310158,478.375610 109.207634,485.494171 
	C120.517159,494.542572 133.361221,499.792908 147.875336,500.877747 
	C149.221832,500.978424 150.510956,501.846741 151.995117,502.726501 
	C151.126434,507.255676 147.682571,505.990204 145.219559,505.747925 
	C128.866760,504.139221 114.808784,497.370209 102.390213,486.676147 
	C92.467209,478.131104 86.683037,466.728485 79.942398,455.570435 
z"/>
<path fill="#F9F9F9" opacity="1.000000" stroke="none" 
	d="
M169.027725,332.890900 
	C179.296432,334.327240 189.095261,337.109070 198.436218,341.812775 
	C202.498779,343.858521 207.304489,344.397766 211.713654,345.806030 
	C212.917999,346.190704 213.908417,347.245178 214.997009,347.992249 
	C214.213562,348.947754 213.576782,350.095215 212.621185,350.825470 
	C208.589905,353.906097 203.991150,356.392151 200.454147,359.945892 
	C185.484741,374.986115 167.215790,378.706085 147.203445,375.457428 
	C137.114914,373.819702 131.430313,366.885376 130.743362,357.975494 
	C129.986115,348.153809 136.090225,338.718811 145.711960,334.912445 
	C147.254242,334.302307 148.866959,333.870300 150.768082,333.168274 
	C152.105392,332.977173 153.121735,332.973694 154.988556,332.907166 
	C160.235260,332.859711 164.631485,332.875305 169.027725,332.890900 
M149.084167,347.020416 
	C148.757690,350.780823 147.940002,354.578094 148.219086,358.292999 
	C148.644653,363.957550 152.755722,367.144287 160.432663,368.748688 
	C166.638184,370.045563 171.254593,368.487244 174.043854,364.154175 
	C178.088242,357.871277 175.713516,348.101227 169.018127,343.477386 
	C161.749603,338.457672 154.770370,339.462982 149.084167,347.020416 
z"/>
<path fill="#181F16" opacity="1.000000" stroke="none" 
	d="
M139.918442,380.066681 
	C152.367844,385.185455 164.768097,384.976654 177.463776,381.342804 
	C189.803375,377.810822 200.453995,371.620087 209.709824,362.782990 
	C205.285233,371.563843 197.236984,376.049957 188.753326,379.444214 
	C180.260986,382.841827 171.330795,385.144989 161.887451,388.152435 
	C179.880676,391.803894 196.136459,387.095856 212.654831,380.482727 
	C208.703049,387.085876 196.638641,391.466827 176.456009,392.797760 
	C162.971344,393.687042 150.718277,389.122528 139.624435,380.856079 
	C139.437073,380.596222 139.741928,380.227905 139.918442,380.066681 
z"/>
<path fill="#1C1F13" opacity="1.000000" stroke="none" 
	d="
M89.500885,459.136047 
	C89.025742,458.633789 89.010323,458.183563 88.989044,457.396057 
	C106.578957,458.589539 124.360062,458.512329 141.418671,464.297852 
	C148.798950,466.800934 156.181107,464.459045 163.374313,462.383789 
	C181.587494,457.129425 198.249619,448.791779 213.769302,437.139709 
	C214.562408,437.263336 214.773285,437.486786 214.918716,437.771973 
	C197.513489,452.748688 177.836151,463.402771 154.983963,466.643311 
	C147.724762,467.672729 139.661316,466.455750 132.543610,464.331177 
	C118.537926,460.150696 104.348068,459.269440 89.500885,459.136047 
z"/>
<path fill="#141D17" opacity="1.000000" stroke="none" 
	d="
M257.516174,351.356567 
	C261.464264,356.527985 265.189148,361.403961 268.914032,366.279907 
	C268.491241,366.595825 268.068451,366.911713 267.645660,367.227600 
	C265.284210,364.489227 262.945770,361.730469 260.547974,359.024292 
	C259.781738,358.159515 258.910583,356.821716 257.998199,356.743652 
	C251.792206,356.212799 252.576202,351.396790 251.964218,347.384796 
	C249.801620,333.207367 241.836731,322.515717 231.420853,313.317993 
	C229.848175,311.929260 228.150070,310.682526 226.783798,308.327332 
	C227.842392,308.482910 229.146713,308.293304 229.922806,308.845764 
	C241.889191,317.363800 250.980225,327.917786 254.063950,342.821442 
	C254.653107,345.668793 256.192139,348.319641 257.516174,351.356567 
z"/>
<path fill="#5A7375" opacity="1.000000" stroke="none" 
	d="
M169.015305,332.651184 
	C164.631485,332.875305 160.235260,332.859711 155.361877,332.807556 
	C156.331665,332.175293 157.756348,331.149963 159.230148,331.073669 
	C162.260391,330.916840 165.316940,331.267761 168.679260,331.670593 
	C168.995850,331.931488 169.002884,332.411499 169.015305,332.651184 
z"/>
<path fill="#162012" opacity="1.000000" stroke="none" 
	d="
M238.572968,394.381989 
	C241.099747,397.254120 243.626541,400.126251 246.153320,402.998383 
	C245.630051,403.439117 245.106766,403.879852 244.583481,404.320587 
	C242.366379,401.503143 240.149277,398.685730 238.067169,395.337952 
	C238.325760,394.665710 238.449356,394.523865 238.572968,394.381989 
z"/>
<path fill="#242A1D" opacity="1.000000" stroke="none" 
	d="
M226.586395,425.011566 
	C227.070755,425.117493 227.274872,425.404388 227.707443,425.825989 
	C225.524551,428.301239 223.113205,430.641815 220.360779,433.005341 
	C222.115189,430.416382 224.210678,427.804474 226.586395,425.011566 
z"/>
<path fill="#242A1D" opacity="1.000000" stroke="none" 
	d="
M215.221313,437.662628 
	C214.773285,437.486786 214.562408,437.263336 214.075577,436.998566 
	C215.689438,435.520355 217.513824,434.145172 219.682205,432.895630 
	C218.525436,434.531982 217.024689,436.042633 215.221313,437.662628 
z"/>
<path fill="#162012" opacity="1.000000" stroke="none" 
	d="
M237.994568,394.998779 
	C237.609985,394.700989 237.432999,394.212006 237.256012,393.722992 
	C237.593155,393.813141 237.930283,393.903320 238.420197,394.187744 
	C238.449356,394.523865 238.325760,394.665710 237.994568,394.998779 
z"/>
<path fill="#080703" opacity="1.000000" stroke="none" 
	d="
M308.044159,264.618164 
	C310.068542,262.835938 312.148621,260.003906 314.078003,264.727722 
	C310.858887,279.086243 310.928314,292.987946 315.140625,306.827942 
	C315.658112,308.528168 315.368164,310.474121 315.224060,312.632385 
	C313.336975,311.462646 310.786346,310.267212 310.164703,308.421906 
	C306.223083,296.721191 306.506256,284.595551 307.373932,272.467590 
	C307.550934,269.993591 307.824158,267.526459 308.044159,264.618164 
z"/>
<path fill="#D73C01" opacity="1.000000" stroke="none" 
	d="
M689.952087,26.972363 
	C695.015381,25.665886 700.072876,23.266983 705.143005,23.239719 
	C728.627136,23.113434 747.057556,39.301868 750.081848,62.817677 
	C753.801819,91.741913 730.244568,114.733543 703.869324,113.811340 
	C683.373108,113.094688 666.555115,99.787224 662.341675,80.454330 
	C669.508362,84.027115 676.280212,83.635368 683.064514,80.100800 
	C701.520264,70.485611 708.604248,40.291946 689.952087,26.972363 
M712.344543,59.952530 
	C705.056763,60.122734 700.827209,63.843342 700.406250,70.454338 
	C700.053528,75.994064 704.922424,81.552032 710.548706,82.032242 
	C716.520142,82.541901 722.152039,78.447891 722.966919,73.004990 
	C723.965942,66.331512 720.320007,61.469025 712.344543,59.952530 
z"/>
<path fill="#FFF696" opacity="1.000000" stroke="none" 
	d="
M689.620239,26.830017 
	C708.604248,40.291946 701.520264,70.485611 683.064514,80.100800 
	C676.280212,83.635368 669.508362,84.027115 662.354858,80.060867 
	C640.970520,65.599571 650.583862,32.210285 669.811890,25.188114 
	C676.410522,22.778244 683.085754,22.450712 689.620239,26.830017 
z"/>
<path fill="#1F1B15" opacity="1.000000" stroke="none" 
	d="
M218.985535,420.000397 
	C219.071075,420.497284 218.875015,420.751770 218.405396,421.081879 
	C218.057037,421.047333 217.915741,420.885986 217.732239,420.351440 
	C217.914673,419.805450 218.130692,419.622498 218.338058,419.429352 
	C218.482178,419.555969 218.626312,419.682617 218.985535,420.000397 
z"/>
<path fill="#F9F9F9" opacity="1.000000" stroke="none" 
	d="
M94.304169,335.147583 
	C104.457146,336.376190 114.164917,337.486511 123.823479,338.926849 
	C128.380768,339.606476 129.653671,342.726654 128.688538,347.069275 
	C128.112747,349.660004 127.496155,352.327301 127.531746,354.951630 
	C127.624542,361.797058 123.399948,365.219360 117.879807,367.451324 
	C105.554398,372.434875 92.603180,373.260315 79.578568,371.963379 
	C71.783218,371.187134 67.932014,366.509918 67.105560,358.714020 
	C65.599380,344.506226 70.843712,338.319580 86.394264,336.022003 
	C88.864075,335.657074 91.356697,335.446533 94.304169,335.147583 
M101.498688,343.884857 
	C99.813042,342.900574 98.237541,341.544647 96.419838,341.005859 
	C92.038681,339.707184 88.339836,340.989838 85.331558,344.562805 
	C81.220253,349.445892 79.873497,354.290710 83.283485,360.379669 
	C86.832588,366.717010 89.067917,367.925415 98.146782,365.999542 
	C102.960014,364.978485 106.735146,360.310852 105.987091,354.859741 
	C105.494911,351.273224 103.396553,347.907135 101.498688,343.884857 
z"/>
<path fill="#4079B1" opacity="1.000000" stroke="none" 
	d="
M71.996208,376.012451 
	C73.198006,375.371094 74.541641,373.948547 75.532600,374.162170 
	C92.284950,377.773193 107.960953,373.895386 123.376328,367.729279 
	C124.878372,367.128479 126.643448,367.185242 128.286438,366.936768 
	C127.502037,368.525970 127.065498,370.471649 125.869347,371.638885 
	C121.961021,375.452820 117.951393,379.207489 113.654373,382.567596 
	C107.801712,387.144226 100.177162,387.376404 91.149445,382.937439 
	C101.090347,380.094604 109.802376,377.603180 118.514404,375.111786 
	C118.397957,374.706848 118.281502,374.301910 118.165054,373.896973 
	C114.517067,374.773438 110.907730,376.140167 107.213600,376.431488 
	C97.404274,377.205017 87.561264,377.603485 77.724236,377.923309 
	C76.028214,377.978455 74.295837,376.915375 72.264252,376.153839 
	C71.948235,375.938843 71.973930,375.992615 71.996208,376.012451 
z"/>
<path fill="#3F79B3" opacity="1.000000" stroke="none" 
	d="
M118.060303,311.248932 
	C118.802040,310.910522 119.592331,310.825134 120.382614,310.739716 
	C120.447571,310.903381 120.512527,311.067017 120.577492,311.230682 
	C119.991821,311.483826 119.406158,311.736938 118.527878,311.995728 
	C118.193130,311.834900 118.150993,311.668396 118.060303,311.248932 
z"/>
<path fill="#3F79B3" opacity="1.000000" stroke="none" 
	d="
M123.370132,307.943176 
	C123.573380,308.239227 123.604187,308.655518 123.634995,309.071838 
	C123.489235,308.735687 123.343468,308.399567 123.370132,307.943176 
z"/>
<path fill="#CD0554" opacity="1.000000" stroke="none" 
	d="
M218.520462,419.127869 
	C218.130692,419.622498 217.914673,419.805450 217.521637,420.108246 
	C211.400543,423.904327 205.451828,427.576843 199.493698,431.234070 
	C195.691925,433.567719 191.819870,433.869049 187.582291,432.200195 
	C181.349731,429.745667 175.358063,431.993988 169.662003,434.190338 
	C160.505585,437.720917 151.596725,441.887909 142.513962,445.617157 
	C136.490021,448.090515 130.256653,448.371582 124.923767,444.294769 
	C122.937607,442.776459 121.350990,439.390259 121.455444,436.935547 
	C121.530304,435.176178 124.451614,432.774841 126.580147,432.037659 
	C130.131409,430.807709 134.069962,430.139465 137.836105,430.176971 
	C161.921432,430.416748 185.144180,425.770203 207.938354,418.418915 
	C210.466888,417.603424 213.058670,416.797424 215.675293,416.541931 
	C216.601303,416.451538 217.688980,418.016907 218.520462,419.127869 
z"/>
<path fill="#D6AABD" opacity="1.000000" stroke="none" 
	d="
M119.135040,452.068604 
	C109.518044,449.745178 100.322006,447.576019 91.194725,445.148315 
	C87.486069,444.161865 86.546738,441.592133 88.639267,438.264160 
	C95.107254,427.977448 109.830879,424.488281 120.606155,430.696655 
	C120.352371,434.881012 113.114960,437.155365 117.019203,442.343719 
	C119.542061,445.696411 122.752914,448.531372 126.148094,452.118835 
	C123.711540,452.118835 121.647598,452.118835 119.135040,452.068604 
z"/>
<path fill="#D2A8BA" opacity="1.000000" stroke="none" 
	d="
M153.689819,445.705750 
	C161.133957,442.469391 168.113739,438.985748 175.447464,436.582001 
	C178.905487,435.448547 183.042831,436.387634 187.029480,437.324280 
	C175.361435,444.498322 162.852249,448.634705 149.441925,450.025909 
	C149.225266,449.644531 149.008606,449.263153 148.791931,448.881805 
	C150.318146,447.888245 151.844360,446.894714 153.689819,445.705750 
z"/>
<path fill="#141912" opacity="1.000000" stroke="none" 
	d="
M149.248871,346.660828 
	C154.770370,339.462982 161.749603,338.457672 169.018127,343.477386 
	C175.713516,348.101227 178.088242,357.871277 174.043854,364.154175 
	C171.254593,368.487244 166.638184,370.045563 160.432663,368.748688 
	C152.755722,367.144287 148.644653,363.957550 148.219086,358.292999 
	C147.940002,354.578094 148.757690,350.780823 149.248871,346.660828 
M160.899460,352.478424 
	C159.942474,352.394501 158.644958,351.877563 158.094406,352.310486 
	C156.629944,353.462158 155.487411,355.023193 154.216858,356.421417 
	C156.043289,357.942017 157.869736,359.462616 159.696198,360.983185 
	C160.743454,359.167023 161.967697,357.421082 162.732788,355.492950 
	C162.970078,354.894897 161.960999,353.802246 160.899460,352.478424 
z"/>
<path fill="#FC8523" opacity="1.000000" stroke="none" 
	d="
M712.765991,59.957405 
	C720.320007,61.469025 723.965942,66.331512 722.966919,73.004990 
	C722.152039,78.447891 716.520142,82.541901 710.548706,82.032242 
	C704.922424,81.552032 700.053528,75.994064 700.406250,70.454338 
	C700.827209,63.843342 705.056763,60.122734 712.765991,59.957405 
z"/>
<path fill="#151A13" opacity="1.000000" stroke="none" 
	d="
M101.758072,344.163574 
	C103.396553,347.907135 105.494911,351.273224 105.987091,354.859741 
	C106.735146,360.310852 102.960014,364.978485 98.146782,365.999542 
	C89.067917,367.925415 86.832588,366.717010 83.283485,360.379669 
	C79.873497,354.290710 81.220253,349.445892 85.331558,344.562805 
	C88.339836,340.989838 92.038681,339.707184 96.419838,341.005859 
	C98.237541,341.544647 99.813042,342.900574 101.758072,344.163574 
M87.143379,356.695343 
	C89.462845,357.769806 91.782310,358.844269 94.101776,359.918732 
	C94.587494,359.250885 95.073212,358.583038 95.558937,357.915161 
	C94.536720,356.562012 93.652008,354.259766 92.458801,354.086884 
	C90.827667,353.850586 88.961884,355.234070 87.143379,356.695343 
z"/>
<path fill="#EAEAEA" opacity="1.000000" stroke="none" 
	d="
M161.210999,352.707214 
	C161.960999,353.802246 162.970078,354.894897 162.732788,355.492950 
	C161.967697,357.421082 160.743454,359.167023 159.696198,360.983185 
	C157.869736,359.462616 156.043289,357.942017 154.216858,356.421417 
	C155.487411,355.023193 156.629944,353.462158 158.094406,352.310486 
	C158.644958,351.877563 159.942474,352.394501 161.210999,352.707214 
z"/>
<path fill="#EBECEB" opacity="1.000000" stroke="none" 
	d="
M87.170029,356.309296 
	C88.961884,355.234070 90.827667,353.850586 92.458801,354.086884 
	C93.652008,354.259766 94.536720,356.562012 95.558937,357.915161 
	C95.073212,358.583038 94.587494,359.250885 94.101776,359.918732 
	C91.782310,358.844269 89.462845,357.769806 87.170029,356.309296 
z"/>
</svg>